<?xml version="1.0" standalone="no"?><!DOCTYPE svg PUBLIC "-//W3C//DTD SVG 1.1//EN" "http://www.w3.org/Graphics/SVG/1.1/DTD/svg11.dtd"><svg t="1677079783055" class="icon" viewBox="0 0 1024 1024" version="1.1" xmlns="http://www.w3.org/2000/svg" p-id="10116" xmlns:xlink="http://www.w3.org/1999/xlink" width="200" height="200"><path d="M601.6 976.2c-1.4 0-2.8-0.1-4.2-0.4-11.6-2.3-19-13.5-16.7-25.1l33.8-168.8c2.3-11.6 13.5-19 25.1-16.7 11.6 2.3 19 13.5 16.7 25.1L622.5 959c-2 10.2-10.9 17.2-20.9 17.2zM507.3 977.9c-11.8 0-21.3-9.6-21.3-21.3V786c0-11.8 9.6-21.3 21.3-21.3 11.8 0 21.3 9.6 21.3 21.3v170.6c0.1 11.8-9.5 21.3-21.3 21.3zM413.6 978.6c-10 0-18.9-7-20.9-17.2l-34.3-171.3c-2.3-11.6 5.2-22.8 16.7-25.1 11.6-2.3 22.8 5.2 25.1 16.7L434.5 953c2.3 11.6-5.2 22.8-16.7 25.1-1.4 0.4-2.8 0.5-4.2 0.5zM265.3 979.4c-9.5 0-18.2-6.4-20.6-16l-22.4-87.2c-8.6-32.5-3.2-65.7 15.3-93.6 20.8-31.5 56.7-53 98.3-59 11.7-1.7 22.5 6.4 24.2 18.1 1.7 11.7-6.4 22.5-18.1 24.2-29.6 4.3-54.6 19-68.8 40.3-11.6 17.6-15 38.6-9.6 59.2v0.2l22.4 87.3c2.9 11.4-3.9 23-15.4 26-1.8 0.3-3.6 0.5-5.3 0.5zM751 979.4c-1.7 0-3.5-0.2-5.2-0.6-11.4-2.9-18.4-14.4-15.5-25.9l20.8-83.4c1.3-5 2.1-9.9 2.4-14.9 1.5-21.3-5.8-41.8-20.6-58-15.2-16.6-37.3-27.5-62.1-30.8-11.7-1.5-19.9-12.2-18.4-23.9s12.2-19.9 23.9-18.4c34.8 4.5 66 20.2 88 44.2 22.8 24.8 34.1 56.8 31.7 89.9-0.5 7.4-1.8 14.9-3.6 22.2l-20.8 83.3c-2.4 9.8-11.1 16.3-20.6 16.3z" fill="#333333" p-id="10117"></path><path d="M599.7 978.6H413.6c-11.8 0-21.3-9.6-21.3-21.3s9.6-21.3 21.3-21.3h186.1c11.8 0 21.3 9.6 21.3 21.3s-9.5 21.3-21.3 21.3zM336.5 979.3h-68c-11.8 0-21.3-9.6-21.3-21.3s9.6-21.3 21.3-21.3h68c11.8 0 21.3 9.6 21.3 21.3s-9.5 21.3-21.3 21.3zM600.2 921.2h-186c-11.8 0-21.3-9.6-21.3-21.3s9.6-21.3 21.3-21.3h186.1c11.8 0 21.3 9.6 21.3 21.3s-9.6 21.3-21.4 21.3zM336.5 921.3h-68.3c-11.8 0-21.3-9.6-21.3-21.3s9.6-21.3 21.3-21.3h68.3c11.8 0 21.3 9.6 21.3 21.3s-9.5 21.3-21.3 21.3z" fill="#333333" p-id="10118"></path><path d="M345.3 979.4c-10.4 0-19.5-7.6-21.1-18.1l-8.9-58.1c-1.8-11.6 6.2-22.5 17.9-24.3 11.6-1.8 22.5 6.2 24.3 17.9l8.9 58.1c1.8 11.6-6.2 22.5-17.9 24.3-1 0.1-2.1 0.2-3.2 0.2zM748.5 980.8h-68c-11.8 0-21.3-9.6-21.3-21.3s9.6-21.3 21.3-21.3h68c11.8 0 21.3 9.6 21.3 21.3s-9.5 21.3-21.3 21.3zM751.4 922.6h-77.3c-11.8 0-21.3-9.6-21.3-21.3s9.6-21.3 21.3-21.3h77.3c11.8 0 21.3 9.6 21.3 21.3s-9.5 21.3-21.3 21.3z" fill="#333333" p-id="10119"></path><path d="M680 980.9c-10.4 0-19.5-7.6-21.1-18.1l-8.9-58.1c-1.8-11.6 6.2-22.5 17.9-24.3 11.6-1.8 22.5 6.2 24.3 17.9l8.9 58.1c1.8 11.6-6.2 22.5-17.9 24.3-1 0.1-2.1 0.2-3.2 0.2zM512 746.7c-85.5 0-165.8-33.3-226.3-93.7-60.4-60.5-93.7-140.9-93.7-226.3 0-24.2 2.7-48.4 8.1-71.8l41.6 9.5c-4.7 20.3-7 41.2-7 62.2 0 74.1 28.8 143.7 81.2 196.1 52.4 52.4 122 81.2 196.1 81.2s143.7-28.8 196.1-81.2c52.4-52.4 81.2-122 81.2-196.1 0-19.4-2-38.7-6-57.5l41.8-8.8c4.6 21.7 6.9 44 6.9 66.3 0 85.5-33.3 165.8-93.7 226.3-60.5 60.5-140.8 93.8-226.3 93.8zM688.9 213c-49.6-41-112.4-63.7-176.9-63.7-61.9 0-120.4 19.9-169.3 57.6l-26.1-33.8c56.4-43.5 124-66.5 195.4-66.5 37.9 0 75.1 6.6 110.4 19.5 34.1 12.5 65.6 30.7 93.7 54L688.9 213zM816.3 810.4c-2.8 0-5.6-0.5-8.3-1.7-10.8-4.6-15.9-17.1-11.3-28 8.9-20.9 24.7-40.4 44.7-54.9 3.5-2.5 7.1-4.9 10.7-7 4.9-15.7 13.5-30.5 25.1-43 15-16.2 34.8-28.2 57.3-34.6 11.3-3.2 23.1 3.3 26.4 14.6 3.2 11.3-3.3 23.1-14.6 26.4-16.9 4.8-28.6 12.9-36.8 21.5 20.2 2.5 36.7 16.2 42.1 35.6 6.6 23.6-4.3 48.1-27.9 62.4l-2.2 1.3-2.4 0.8c-28 9-45.6-2.1-53.6-9.5-6-5.6-10.6-12.7-13.7-20.8-6.9 7.5-12.5 15.8-15.8 23.7-3.5 8.3-11.4 13.2-19.7 13.2z m73.8-62.4c0 7.3 1.9 12.8 4.4 15.1 2.1 1.9 6 1.6 9.1 0.8 6.4-4.6 7.8-9.7 6.8-13-0.6-2.2-2.5-4.9-7.7-4.9-4.1 0.1-8.3 0.8-12.6 2z" fill="#333333" p-id="10120"></path><path d="M405.3 320m-21.3 0a21.3 21.3 0 1 0 42.6 0 21.3 21.3 0 1 0-42.6 0Z" fill="#333333" p-id="10121"></path><path d="M405.3 347.7c-15.3 0-27.7-12.4-27.7-27.7s12.4-27.7 27.7-27.7c15.3 0 27.7 12.4 27.7 27.7s-12.4 27.7-27.7 27.7z m0-42.6c-8.2 0-14.9 6.7-14.9 14.9s6.7 14.9 14.9 14.9 14.9-6.7 14.9-14.9-6.6-14.9-14.9-14.9z" fill="#333333" p-id="10122"></path><path d="M470.5 535.6m-21.3 0a21.3 21.3 0 1 0 42.6 0 21.3 21.3 0 1 0-42.6 0Z" fill="#333333" p-id="10123"></path><path d="M555.9 535.6m-21.3 0a21.3 21.3 0 1 0 42.6 0 21.3 21.3 0 1 0-42.6 0Z" fill="#333333" p-id="10124"></path><path d="M618.7 320m-21.3 0a21.3 21.3 0 1 0 42.6 0 21.3 21.3 0 1 0-42.6 0Z" fill="#333333" p-id="10125"></path><path d="M618.7 347.7c-15.3 0-27.7-12.4-27.7-27.7s12.4-27.7 27.7-27.7c15.3 0 27.7 12.4 27.7 27.7s-12.4 27.7-27.7 27.7z m0-42.6c-8.2 0-14.9 6.7-14.9 14.9s6.7 14.9 14.9 14.9 14.9-6.7 14.9-14.9-6.7-14.9-14.9-14.9zM512 661.3c-39.2 0-76.2-12.9-104.2-36.2-29.1-24.3-45.2-56.9-45.2-91.8s16-67.5 45.2-91.8c28-23.3 65-36.2 104.2-36.2s76.2 12.9 104.2 36.2c29.1 24.3 45.2 56.9 45.2 91.8s-16 67.5-45.2 91.8c-28 23.4-65 36.2-104.2 36.2z m0-213.3c-58.8 0-106.7 38.3-106.7 85.3s47.9 85.3 106.7 85.3 106.7-38.3 106.7-85.3S570.8 448 512 448zM810.8 373.9c-4.3 0-8.7-0.2-13.2-0.7-30.4-3.4-60.2-18.2-83.7-41.8-23.6-23.6-38.4-53.3-41.8-83.7-3.6-32.2 5.9-61.4 26.7-82.2 20.8-20.8 50-30.3 82.2-26.7 30.4 3.4 60.2 18.2 83.7 41.8 23.6 23.6 38.4 53.3 41.8 83.7 3.6 32.2-5.9 61.4-26.7 82.2-17.9 17.9-42 27.4-69 27.4zM768 180.7c-15.6 0-29.3 5.2-39 14.9-11.4 11.4-16.6 28.2-14.5 47.3 2.3 20.8 12.8 41.5 29.5 58.3s37.4 27.2 58.3 29.5c19.1 2.1 35.9-3 47.3-14.5 11.4-11.4 16.6-28.2 14.5-47.3-2.3-20.8-12.8-41.5-29.5-58.3-16.7-16.7-37.4-27.2-58.3-29.5-2.8-0.2-5.6-0.4-8.3-0.4zM213.2 373.9c-26.9 0-51.1-9.5-69-27.4-20.8-20.8-30.3-50-26.7-82.2 3.4-30.4 18.2-60.2 41.8-83.7 23.6-23.6 53.3-38.4 83.7-41.8 32.2-3.6 61.4 5.9 82.2 26.7 20.8 20.8 30.3 50 26.7 82.2-3.4 30.4-18.2 60.2-41.8 83.7-23.6 23.6-53.3 38.4-83.7 41.8-4.5 0.5-8.9 0.7-13.2 0.7z m-23.8-163.2c-16.7 16.7-27.2 37.4-29.5 58.3-2.1 19.1 3 35.9 14.5 47.3s28.2 16.6 47.3 14.5c20.8-2.3 41.5-12.8 58.3-29.5s27.2-37.4 29.5-58.3c2.1-19.1-3-35.9-14.5-47.3s-28.2-16.6-47.3-14.5c-20.9 2.3-41.6 12.8-58.3 29.5z" fill="#333333" p-id="10126"></path></svg>