<svg version="1.1" xmlns="http://www.w3.org/2000/svg" viewBox="0 0 754.3377380371094 161.41403808593748" width="754.3377380371094" height="161.41403808593748">
  <!-- svg-source:excalidraw -->
  
  <defs>
    <style class="style-fonts">
      @font-face {
        font-family: "Virgil";
        src: url("https://excalidraw.com/Virgil.woff2");
      }
      @font-face {
        font-family: "Cascadia";
        src: url("https://excalidraw.com/Cascadia.woff2");
      }
    </style>
  </defs>
  <rect x="0" y="0" width="754.3377380371094" height="161.41403808593748" fill="#ffffff"></rect><g transform="translate(16.857177734375 69.22077941894531) rotate(0 345.59765625 9.199999999999989)"><text x="0" y="0" font-family="Helvetica, Segoe UI Emoji" font-size="16px" fill="#c92a2a" text-anchor="start" style="white-space: pre;" direction="ltr" dominant-baseline="text-before-edge">EVAL  "return  redis.call('mset',KEYS[1],ARGV[1],KEYS[2],ARGV[2])"  keyNumber key1  ...  arg ...</text></g><g stroke-linecap="round" transform="translate(59.246795654296875 56.75325012207031) rotate(0 225.35067749023438 23.688323974609375)"><path d="M11.84 0 M11.84 0 C110.67 1, 210.07 0.63, 438.86 0 M11.84 0 C139.5 -0.3, 266.76 -1.04, 438.86 0 M438.86 0 C444.83 -0.93, 451.46 4.41, 450.7 11.84 M438.86 0 C444.85 -1.38, 451.54 4.22, 450.7 11.84 M450.7 11.84 C448.9 17.44, 450.05 23.17, 450.7 35.53 M450.7 11.84 C449.54 19.19, 451.41 27.65, 450.7 35.53 M450.7 35.53 C448.92 41.51, 445.81 47.36, 438.86 47.38 M450.7 35.53 C450.03 44.27, 448.89 49, 438.86 47.38 M438.86 47.38 C295.53 45.76, 153.65 45.19, 11.84 47.38 M438.86 47.38 C351.22 47.71, 264.65 47.42, 11.84 47.38 M11.84 47.38 C5.19 47.17, 1.33 43.55, 0 35.53 M11.84 47.38 C4.07 45.64, -1.08 44.27, 0 35.53 M0 35.53 C1.61 29.12, 0.92 24.12, 0 11.84 M0 35.53 C0.01 28.35, -0.94 18.68, 0 11.84 M0 11.84 C-1.09 2.54, 3.13 -1.98, 11.84 0 M0 11.84 C0.74 3.12, 6.14 -1.55, 11.84 0" stroke="#1864ab" stroke-width="1" fill="none"></path></g><g stroke-linecap="round" transform="translate(510.5714416503906 55.50648498535156) rotate(0 43.63641357421875 25.558441162109375)"><path d="M12.78 0 M12.78 0 C27.28 1.55, 45.75 1.34, 74.49 0 M12.78 0 C25.76 0.49, 40.53 1.1, 74.49 0 M74.49 0 C82.07 0.34, 87.43 3.38, 87.27 12.78 M74.49 0 C81.35 -0.02, 87.55 6.21, 87.27 12.78 M87.27 12.78 C85.99 21.9, 87.58 30.46, 87.27 38.34 M87.27 12.78 C87.71 19.31, 86.48 28.31, 87.27 38.34 M87.27 38.34 C87.05 46.27, 82.99 49.7, 74.49 51.12 M87.27 38.34 C88.79 47.34, 81.02 52.96, 74.49 51.12 M74.49 51.12 C51.64 51.09, 29.84 52.01, 12.78 51.12 M74.49 51.12 C52.68 51.72, 31.35 52.08, 12.78 51.12 M12.78 51.12 C2.91 49.17, -0.15 45.89, 0 38.34 M12.78 51.12 C4.1 50.61, -0.75 47.41, 0 38.34 M0 38.34 C-1.73 32.02, 1.17 22.58, 0 12.78 M0 38.34 C-0.6 29.55, 0.11 20.42, 0 12.78 M0 12.78 C1.42 4.08, 6.05 -0.88, 12.78 0 M0 12.78 C-0.35 4.14, 4.01 1.65, 12.78 0" stroke="#1864ab" stroke-width="1" fill="none"></path></g><g stroke-linecap="round" transform="translate(598.4675598144531 54.88310241699219) rotate(0 31.168853759765625 24.623397827148438)"><path d="M12.31 0 M12.31 0 C22.88 1.16, 30.49 -0.13, 50.03 0 M12.31 0 C25.48 -0.62, 39.07 -0.24, 50.03 0 M50.03 0 C57.41 -0.49, 63.93 4.46, 62.34 12.31 M50.03 0 C60.47 0.6, 60.46 5.01, 62.34 12.31 M62.34 12.31 C62.89 19.13, 63.18 23.02, 62.34 36.94 M62.34 12.31 C61.51 16.53, 61.77 21.88, 62.34 36.94 M62.34 36.94 C64.29 43.98, 56.75 51.08, 50.03 49.25 M62.34 36.94 C60.11 46.57, 56.09 47.02, 50.03 49.25 M50.03 49.25 C36.25 47.26, 26.99 48.49, 12.31 49.25 M50.03 49.25 C40.29 49.36, 32.14 49.86, 12.31 49.25 M12.31 49.25 C4.25 50.93, -0.23 45.95, 0 36.94 M12.31 49.25 C4.35 49.83, 0.78 44.87, 0 36.94 M0 36.94 C0.9 31.61, 0.54 24.58, 0 12.31 M0 36.94 C0.23 31.33, 0.44 24.85, 0 12.31 M0 12.31 C-0.84 3.58, 3.44 -1.28, 12.31 0 M0 12.31 C-0.33 5.31, 3.46 1.3, 12.31 0" stroke="#1864ab" stroke-width="1" fill="none"></path></g><g stroke-linecap="round" transform="translate(663.2987976074219 54.25975036621094) rotate(0 40.51947021484375 25.558441162109375)"><path d="M12.78 0 M12.78 0 C28.59 -1.22, 45 -0.86, 68.26 0 M12.78 0 C25.45 -0.38, 37.05 -0.84, 68.26 0 M68.26 0 C78.56 0.27, 79.13 4.71, 81.04 12.78 M68.26 0 C78.69 1.57, 80.19 5.44, 81.04 12.78 M81.04 12.78 C81.48 22.46, 82.21 27.29, 81.04 38.34 M81.04 12.78 C80.04 18.62, 80.81 25.61, 81.04 38.34 M81.04 38.34 C79.24 47.53, 77.38 52.25, 68.26 51.12 M81.04 38.34 C79.16 45.31, 75.3 52.46, 68.26 51.12 M68.26 51.12 C48.91 52.02, 32.22 51.74, 12.78 51.12 M68.26 51.12 C53.83 51.99, 37.83 52.29, 12.78 51.12 M12.78 51.12 C3.71 52.73, 0.59 47.87, 0 38.34 M12.78 51.12 C3.12 48.93, 0.16 47.99, 0 38.34 M0 38.34 C0.01 34.63, 0.57 29.27, 0 12.78 M0 38.34 C-0.35 30.21, 0.97 23.3, 0 12.78 M0 12.78 C1.5 4.64, 2.56 0.48, 12.78 0 M0 12.78 C-0.73 4.21, 2.06 1.54, 12.78 0" stroke="#1864ab" stroke-width="1" fill="none"></path></g><g stroke-linecap="round" transform="translate(10 54.88316345214844) rotate(0 23.064956665039062 23.376602172851562)"><path d="M11.53 0 M11.53 0 C19.73 1.06, 25.08 -1.43, 34.6 0 M11.53 0 C17.02 0.9, 21.73 0.13, 34.6 0 M34.6 0 C42.23 0.09, 45.55 3.8, 46.13 11.53 M34.6 0 C43.39 1.41, 47.52 3.04, 46.13 11.53 M46.13 11.53 C46.66 21.79, 45.08 28.12, 46.13 35.22 M46.13 11.53 C46.25 19, 46.25 26.96, 46.13 35.22 M46.13 35.22 C46.7 44.79, 42.54 46.82, 34.6 46.75 M46.13 35.22 C47.14 42.12, 41.99 49.01, 34.6 46.75 M34.6 46.75 C23.79 47.27, 15.75 46.75, 11.53 46.75 M34.6 46.75 C29.95 47.21, 25.71 47.25, 11.53 46.75 M11.53 46.75 C2.27 45.39, 0.16 43.22, 0 35.22 M11.53 46.75 C4.14 46.76, -1.22 43.81, 0 35.22 M0 35.22 C-0.29 28.95, 0.69 23.92, 0 11.53 M0 35.22 C-0.39 28.22, -0.53 20.39, 0 11.53 M0 11.53 C1.53 4.34, 2.86 1.61, 11.53 0 M0 11.53 C-0.48 1.84, 4.58 -0.02, 11.53 0" stroke="#862e9c" stroke-width="1" fill="none"></path></g><g transform="translate(11.24676513671875 133.0140380859375) rotate(0 86.6875 9.199999999999989)"><text x="0" y="0" font-family="Helvetica, Segoe UI Emoji" font-size="16px" fill="#862e9c" text-anchor="start" style="white-space: pre;" direction="ltr" dominant-baseline="text-before-edge">redis客户端执行Lua命令</text></g><g stroke-linecap="round"><g transform="translate(27.45452880859375 123.0400390625) rotate(0 -0.06318580555594622 -12.712097673118137)"><path d="M-0.92 -0.32 C-0.95 -4.47, 0.41 -20.96, 0.58 -25.1 M0.8 -1.53 C0.6 -5.53, 0.16 -20.18, -0.06 -23.98" stroke="#862e9c" stroke-width="1" fill="none"></path></g><g transform="translate(27.45452880859375 123.0400390625) rotate(0 -0.06318580555594622 -12.712097673118137)"><path d="M4.26 -12.16 C2.13 -16.7, 0.37 -22.02, 0.59 -24.79 M4.88 -12.39 C2.66 -17.41, 1.36 -21.02, -0.14 -23.48" stroke="#862e9c" stroke-width="1" fill="none"></path></g><g transform="translate(27.45452880859375 123.0400390625) rotate(0 -0.06318580555594622 -12.712097673118137)"><path d="M-4.05 -11.8 C-3.19 -16.4, -1.95 -21.86, 0.59 -24.79 M-3.43 -12.03 C-2.62 -17.16, -0.9 -20.9, -0.14 -23.48" stroke="#862e9c" stroke-width="1" fill="none"></path></g></g><mask></mask><g transform="translate(232.5455322265625 10) rotate(0 19.11328125 9.200000000000003)"><text x="0" y="0" font-family="Helvetica, Segoe UI Emoji" font-size="16px" fill="#862e9c" text-anchor="start" style="white-space: pre;" direction="ltr" dominant-baseline="text-before-edge">script</text></g><g stroke-linecap="round"><g transform="translate(248.75332641601562 34.93507385253906) rotate(0 -0.2864453153824229 9.514675019807171)"><path d="M-0.14 -0.87 C0.22 2.19, 0.82 15.33, 1.09 18.69 M-1.67 1.29 C-1.34 4.47, -0.08 16.68, 0.39 19.9" stroke="#862e9c" stroke-width="1" fill="none"></path></g><g transform="translate(248.75332641601562 34.93507385253906) rotate(0 -0.2864453153824229 9.514675019807171)"><path d="M-4.69 11.66 C-3.53 13.84, -2.11 15.58, 0.12 19.27 M-4.11 11.68 C-2.48 13.08, -1.19 15.72, 0.26 19.75" stroke="#862e9c" stroke-width="1" fill="none"></path></g><g transform="translate(248.75332641601562 34.93507385253906) rotate(0 -0.2864453153824229 9.514675019807171)"><path d="M1.87 10.86 C1.62 13.2, 1.63 15.11, 0.12 19.27 M2.45 10.88 C2.31 12.55, 1.84 15.41, 0.26 19.75" stroke="#862e9c" stroke-width="1" fill="none"></path></g></g><mask></mask><g transform="translate(518.6753234863281 14.98699951171875) rotate(0 36.44921875 9.200000000000003)"><text x="0" y="0" font-family="Helvetica, Segoe UI Emoji" font-size="16px" fill="#862e9c" text-anchor="start" style="white-space: pre;" direction="ltr" dominant-baseline="text-before-edge">key的数量</text></g><g stroke-linecap="round"><g transform="translate(545.5402214836349 37.4285888671875) rotate(0 -0.6823679012331922 10.707757602734475)"><path d="M0.05 0.68 C0.07 3.96, -0.52 16.74, -0.92 20.34 M-1.38 -0.01 C-1.35 3.35, -1.08 18, -1.42 21.43" stroke="#862e9c" stroke-width="1" fill="none"></path></g><g transform="translate(545.5402214836349 37.4285888671875) rotate(0 -0.6823679012331922 10.707757602734475)"><path d="M-4.16 12.09 C-4.75 12.99, -2.29 15.21, -0.78 22 M-4.89 11.7 C-4.07 14.52, -2.95 17.89, -1.31 20.98" stroke="#862e9c" stroke-width="1" fill="none"></path></g><g transform="translate(545.5402214836349 37.4285888671875) rotate(0 -0.6823679012331922 10.707757602734475)"><path d="M3.11 12.31 C0.97 13.16, 1.87 15.34, -0.78 22 M2.39 11.91 C0.71 14.63, -0.66 17.93, -1.31 20.98" stroke="#862e9c" stroke-width="1" fill="none"></path></g></g><mask></mask><g transform="translate(608.4416809082031 132.1818389892578) rotate(0 26.2265625 9.199999999999989)"><text x="0" y="0" font-family="Helvetica, Segoe UI Emoji" font-size="16px" fill="#862e9c" text-anchor="start" style="white-space: pre;" direction="ltr" dominant-baseline="text-before-edge">N个key</text></g><g stroke-linecap="round"><g transform="translate(629.6363830566406 124.07792663574219) rotate(0 -1.0019258004599578 -10.276328434520394)"><path d="M-0.19 -0.3 C-0.16 -3.35, -0.48 -15.56, -0.52 -18.54 M-1.75 -1.5 C-1.87 -4.87, -1.8 -17.18, -1.75 -20.26" stroke="#862e9c" stroke-width="1" fill="none"></path></g><g transform="translate(629.6363830566406 124.07792663574219) rotate(0 -1.0019258004599578 -10.276328434520394)"><path d="M1.23 -11.57 C1.33 -13.72, 0.82 -16.39, -1.26 -21.06 M1.39 -11.56 C-0.25 -15.06, -1.07 -18.71, -2.04 -20.22" stroke="#862e9c" stroke-width="1" fill="none"></path></g><g transform="translate(629.6363830566406 124.07792663574219) rotate(0 -1.0019258004599578 -10.276328434520394)"><path d="M-5.38 -11.63 C-3.67 -13.76, -2.58 -16.42, -1.26 -21.06 M-5.22 -11.62 C-4.28 -15.06, -2.53 -18.68, -2.04 -20.22" stroke="#862e9c" stroke-width="1" fill="none"></path></g></g><mask></mask><g transform="translate(673.2729187011719 13.740264892578125) rotate(0 25.33984375 9.200000000000003)"><text x="0" y="0" font-family="Helvetica, Segoe UI Emoji" font-size="16px" fill="#862e9c" text-anchor="start" style="white-space: pre;" direction="ltr" dominant-baseline="text-before-edge">N个arg</text></g><g stroke-linecap="round"><g transform="translate(695.7423068985734 38.051971435546875) rotate(0 0.8034336755750928 6.769076305567282)"><path d="M1.2 0.15 C1.26 2.39, 1.31 12.06, 1.12 14.36 M0.37 -0.82 C0.27 0.99, 0.77 9.88, 0.57 12.58" stroke="#862e9c" stroke-width="1" fill="none"></path></g><g transform="translate(695.7423068985734 38.051971435546875) rotate(0 0.8034336755750928 6.769076305567282)"><path d="M-1.65 6.55 C-0.48 8.27, 0.11 10.26, 0.65 13.12 M-1.47 5.84 C-1.22 8.14, -0.19 10.18, 0.23 12.36" stroke="#862e9c" stroke-width="1" fill="none"></path></g><g transform="translate(695.7423068985734 38.051971435546875) rotate(0 0.8034336755750928 6.769076305567282)"><path d="M3.05 6.58 C2.52 8.33, 1.42 10.32, 0.65 13.12 M3.22 5.87 C2.07 8.17, 1.7 10.2, 0.23 12.36" stroke="#862e9c" stroke-width="1" fill="none"></path></g></g><mask></mask></svg>