<svg version="1.1" xmlns="http://www.w3.org/2000/svg" viewBox="0 0 691.9619834423065 377.4969177246094" width="691.9619834423065" height="377.4969177246094">
  <!-- svg-source:excalidraw -->
  
  <defs>
    <style class="style-fonts">
      @font-face {
        font-family: "Virgil";
        src: url("https://excalidraw.com/Virgil.woff2");
      }
      @font-face {
        font-family: "Cascadia";
        src: url("https://excalidraw.com/Cascadia.woff2");
      }
    </style>
  </defs>
  <rect x="0" y="0" width="691.9619834423065" height="377.4969177246094" fill="#ffffff"></rect><g stroke-linecap="round" transform="translate(10 34.73622131347656) rotate(0 46.82208251953125 44.17176055908203)"><path d="M22.09 0 M22.09 0 C34.85 -0.38, 44.68 -0.83, 71.56 0 M22.09 0 C35.28 1, 48.07 -0.51, 71.56 0 M71.56 0 C86.22 1.77, 93.46 8.85, 93.64 22.09 M71.56 0 C87.35 -0.97, 92.45 5.51, 93.64 22.09 M93.64 22.09 C95.26 35.12, 93.88 46.22, 93.64 66.26 M93.64 22.09 C93.02 39.44, 92.88 55.21, 93.64 66.26 M93.64 66.26 C95.05 80.57, 87.89 87.43, 71.56 88.34 M93.64 66.26 C95.86 81.31, 85.19 87.77, 71.56 88.34 M71.56 88.34 C58.13 88.14, 43.1 90.23, 22.09 88.34 M71.56 88.34 C54.64 87.41, 37.8 87.35, 22.09 88.34 M22.09 88.34 C5.86 89.68, -0.02 81.13, 0 66.26 M22.09 88.34 C8.38 90.53, 1.82 80.92, 0 66.26 M0 66.26 C-0.6 54.39, 2.33 45.5, 0 22.09 M0 66.26 C0.22 51.36, 0.29 37.95, 0 22.09 M0 22.09 C0.09 6.86, 5.56 0.75, 22.09 0 M0 22.09 C-1.13 8.65, 6.53 1.48, 22.09 0" stroke="#000000" stroke-width="1" fill="none"></path></g><g transform="translate(27.91583251953125 67.4079818725586) rotate(0 28.90625 11.5)"><text x="28.90625" y="0" font-family="Helvetica, Segoe UI Emoji" font-size="20px" fill="#000000" text-anchor="middle" style="white-space: pre;" direction="ltr" dominant-baseline="text-before-edge">client1</text></g><g stroke-linecap="round" transform="translate(11.7607421875 149.46627044677734) rotate(0 46.82208251953125 44.17176055908203)"><path d="M22.09 0 M22.09 0 C35.21 0.05, 46.15 1.74, 71.56 0 M22.09 0 C33.03 -0.32, 42.26 -0.86, 71.56 0 M71.56 0 C86.79 1.75, 92.37 5.62, 93.64 22.09 M71.56 0 C86.77 1.06, 94.23 7.19, 93.64 22.09 M93.64 22.09 C95.39 37.39, 91.97 52.63, 93.64 66.26 M93.64 22.09 C94.04 39.4, 94.39 57.39, 93.64 66.26 M93.64 66.26 C95.39 82.42, 87.63 88.15, 71.56 88.34 M93.64 66.26 C91.79 81.27, 84.32 88.47, 71.56 88.34 M71.56 88.34 C54.52 86.99, 34.16 89.42, 22.09 88.34 M71.56 88.34 C54.53 89.47, 39.85 87.81, 22.09 88.34 M22.09 88.34 C6.43 90.32, 1.37 82.12, 0 66.26 M22.09 88.34 C7.35 87.53, 1.77 82.48, 0 66.26 M0 66.26 C-1.05 51.63, 0.62 34.56, 0 22.09 M0 66.26 C-0.37 57.49, -0.63 47.97, 0 22.09 M0 22.09 C0.79 9.01, 6.37 -1.37, 22.09 0 M0 22.09 C1.03 9.59, 6.15 -1.98, 22.09 0" stroke="#000000" stroke-width="1" fill="none"></path></g><g stroke-linecap="round" transform="translate(13.582794189453125 269.61348724365234) rotate(0 46.82208251953125 44.17176055908203)"><path d="M22.09 0 M22.09 0 C38.98 0.06, 57.7 -2.18, 71.56 0 M22.09 0 C33.81 -0.65, 44.99 -0.1, 71.56 0 M71.56 0 C88.04 -1.27, 91.9 7.78, 93.64 22.09 M71.56 0 C87.34 0.59, 93.47 8.12, 93.64 22.09 M93.64 22.09 C94.57 32.83, 95.11 48.68, 93.64 66.26 M93.64 22.09 C93.12 39.21, 93.54 56.43, 93.64 66.26 M93.64 66.26 C95.08 82.33, 86.09 86.73, 71.56 88.34 M93.64 66.26 C93.94 79.01, 86.41 89.8, 71.56 88.34 M71.56 88.34 C55.08 87.13, 42.52 89.1, 22.09 88.34 M71.56 88.34 C54.71 88.49, 35.35 87.44, 22.09 88.34 M22.09 88.34 C9.34 89.71, 1.14 80.98, 0 66.26 M22.09 88.34 C6.55 90.12, 1.5 82.69, 0 66.26 M0 66.26 C1.82 56.98, 1.28 45.42, 0 22.09 M0 66.26 C0.35 53.33, 0.15 42.26, 0 22.09 M0 22.09 C1.65 6.37, 5.99 0.9, 22.09 0 M0 22.09 C2.23 6.15, 5.38 -1.66, 22.09 0" stroke="#000000" stroke-width="1" fill="none"></path></g><g transform="translate(31.498626708984375 302.2852478027344) rotate(0 28.90625 11.5)"><text x="28.90625" y="0" font-family="Helvetica, Segoe UI Emoji" font-size="20px" fill="#000000" text-anchor="middle" style="white-space: pre;" direction="ltr" dominant-baseline="text-before-edge">client3</text></g><g stroke-linecap="round" transform="translate(560.6177159547806 27.254642486572266) rotate(0 46.82208251953125 44.17176055908203)"><path d="M22.09 0 M22.09 0 C39.89 -1.73, 59.52 -0.25, 71.56 0 M22.09 0 C34.18 1.39, 48.16 -0.09, 71.56 0 M71.56 0 C85.93 -1.27, 95.25 5.85, 93.64 22.09 M71.56 0 C87.28 -0.12, 92.82 7.37, 93.64 22.09 M93.64 22.09 C93.83 36.63, 94.05 45.42, 93.64 66.26 M93.64 22.09 C93.7 33.37, 93.38 45.3, 93.64 66.26 M93.64 66.26 C94.21 82.46, 86.71 88.54, 71.56 88.34 M93.64 66.26 C93.1 82.28, 85.11 88.11, 71.56 88.34 M71.56 88.34 C53.21 89.34, 38.19 87.07, 22.09 88.34 M71.56 88.34 C57.41 87.94, 43.23 88.08, 22.09 88.34 M22.09 88.34 C9.08 89.32, 1.78 80.44, 0 66.26 M22.09 88.34 C7.6 90.03, 0.01 82.49, 0 66.26 M0 66.26 C-1.58 54.4, -1.97 43.44, 0 22.09 M0 66.26 C-0.55 53.66, -0.54 42.9, 0 22.09 M0 22.09 C0.07 5.83, 8.66 0.87, 22.09 0 M0 22.09 C0.83 5.39, 7.34 -2.17, 22.09 0" stroke="#000000" stroke-width="1" fill="none"></path></g><g stroke-linecap="round" transform="translate(562.3784581422806 141.98469161987305) rotate(0 46.82208251953125 44.17176055908203)"><path d="M22.09 0 M22.09 0 C37.49 0.89, 55.64 -0.59, 71.56 0 M22.09 0 C33.16 0.45, 41.81 0.29, 71.56 0 M71.56 0 C85.01 1.6, 92.13 8.23, 93.64 22.09 M71.56 0 C86.16 -0.82, 93.65 7.01, 93.64 22.09 M93.64 22.09 C95.2 35.82, 91.4 48.04, 93.64 66.26 M93.64 22.09 C93 33.95, 93.26 46.36, 93.64 66.26 M93.64 66.26 C95.12 81.41, 86.48 87.87, 71.56 88.34 M93.64 66.26 C94.94 79.81, 86.05 89.4, 71.56 88.34 M71.56 88.34 C55.97 88.9, 36.79 87.96, 22.09 88.34 M71.56 88.34 C55.61 89.54, 40.48 89.45, 22.09 88.34 M22.09 88.34 C8.34 90.13, -0.54 81.19, 0 66.26 M22.09 88.34 C9.05 88.36, 1.51 80.24, 0 66.26 M0 66.26 C0.04 48.4, 0.9 33.39, 0 22.09 M0 66.26 C-0.65 54.9, 0.73 45.2, 0 22.09 M0 22.09 C-1.53 8.66, 8.24 0.72, 22.09 0 M0 22.09 C-1.97 7.34, 5.19 -0.09, 22.09 0" stroke="#000000" stroke-width="1" fill="none"></path></g><g transform="translate(589.2005406618118 174.65645217895508) rotate(0 20 11.5)"><text x="20" y="0" font-family="Helvetica, Segoe UI Emoji" font-size="20px" fill="#000000" text-anchor="middle" style="white-space: pre;" direction="ltr" dominant-baseline="text-before-edge">线程</text></g><g stroke-linecap="round" transform="translate(564.2005101442337 262.13190841674805) rotate(0 46.82208251953125 44.17176055908203)"><path d="M22.09 0 M22.09 0 C42.24 0.52, 60.15 -1.59, 71.56 0 M22.09 0 C32.38 -1.01, 42.54 -1.1, 71.56 0 M71.56 0 C87.88 -1.51, 94.51 7.26, 93.64 22.09 M71.56 0 C85.46 0.01, 93.29 7.4, 93.64 22.09 M93.64 22.09 C94.08 29.37, 92.97 39.75, 93.64 66.26 M93.64 22.09 C93.59 32.61, 94.01 44.12, 93.64 66.26 M93.64 66.26 C94.07 81.18, 85.81 89.47, 71.56 88.34 M93.64 66.26 C92.47 80.75, 87.34 89.3, 71.56 88.34 M71.56 88.34 C60.66 87.7, 47.96 88.84, 22.09 88.34 M71.56 88.34 C55 87.48, 37.39 88.5, 22.09 88.34 M22.09 88.34 C9.14 87.8, 0.2 82.45, 0 66.26 M22.09 88.34 C7.38 89.85, -0.74 82.51, 0 66.26 M0 66.26 C-1.39 54.52, -0.22 39.89, 0 22.09 M0 66.26 C-0.45 52.07, 0.4 35.28, 0 22.09 M0 22.09 C1.3 8.24, 8.08 -1.71, 22.09 0 M0 22.09 C-0.02 5.19, 7.28 0.84, 22.09 0" stroke="#000000" stroke-width="1" fill="none"></path></g><g stroke-linecap="round"><g transform="translate(115.21892750263214 72.429443359375) rotate(0 222.2295842617284 -0.09285210430606128)"><path d="M-0.34 0.54 C73.56 0.42, 368.45 -0.73, 442.53 -0.73 M1.69 -0.22 C76.04 -0.2, 371.11 0.64, 444.8 0.43" stroke="#000000" stroke-width="1" fill="none"></path></g><g transform="translate(115.21892750263214 72.429443359375) rotate(0 222.2295842617284 -0.09285210430606128)"><path d="M417.5 9.26 C421.84 9.71, 430.41 7.83, 443.75 2.33 M415.78 10.52 C423.14 8.84, 431.93 4.63, 444.71 0.74" stroke="#000000" stroke-width="1" fill="none"></path></g><g transform="translate(115.21892750263214 72.429443359375) rotate(0 222.2295842617284 -0.09285210430606128)"><path d="M417.51 -11.26 C421.84 -6.12, 430.42 -3.31, 443.75 2.33 M415.78 -10 C423.16 -6.35, 431.95 -5.22, 444.71 0.74" stroke="#000000" stroke-width="1" fill="none"></path></g></g><mask></mask><g stroke-linecap="round"><g transform="translate(115.21892750263214 192.57672119140625) rotate(0 225.07898342741652 0.02146576675923484)"><path d="M1.09 -0.92 C75.51 -1.27, 373.18 -1.33, 447.74 -0.99 M0.2 1.21 C74.88 1.49, 375.4 0.34, 449.96 0.03" stroke="#000000" stroke-width="1" fill="none"></path></g><g transform="translate(115.21892750263214 192.57672119140625) rotate(0 225.07898342741652 0.02146576675923484)"><path d="M420.28 8.84 C431.33 5.62, 446.08 1.29, 449.22 -0.82 M422.76 11.37 C428.13 7.32, 436.97 4.98, 449.63 -0.02" stroke="#000000" stroke-width="1" fill="none"></path></g><g transform="translate(115.21892750263214 192.57672119140625) rotate(0 225.07898342741652 0.02146576675923484)"><path d="M420.2 -11.68 C431.47 -6.7, 446.26 -2.81, 449.22 -0.82 M422.68 -9.15 C428.27 -7.99, 437.13 -5.13, 449.63 -0.02" stroke="#000000" stroke-width="1" fill="none"></path></g></g><mask></mask><g stroke-linecap="round"><g transform="translate(115.21892750263214 308.6012268066406) rotate(0 223.2277897162549 -0.5915120456926388)"><path d="M-0.22 -0.3 C74.07 -0.42, 371.42 -0.75, 446.01 -0.8 M-1.79 -1.5 C72.84 -1.47, 373.48 0, 448.25 0.32" stroke="#000000" stroke-width="1" fill="none"></path></g><g transform="translate(115.21892750263214 308.6012268066406) rotate(0 223.2277897162549 -0.5915120456926388)"><path d="M419.51 8.95 C427.84 7.93, 437.36 2.62, 448.16 -1.34 M420.46 11 C425.5 7.34, 432.14 6.64, 447.71 0.99" stroke="#000000" stroke-width="1" fill="none"></path></g><g transform="translate(115.21892750263214 308.6012268066406) rotate(0 223.2277897162549 -0.5915120456926388)"><path d="M419.6 -11.57 C427.89 -5.93, 437.38 -4.59, 448.16 -1.34 M420.55 -9.52 C425.78 -8.62, 432.39 -4.78, 447.71 0.99" stroke="#000000" stroke-width="1" fill="none"></path></g></g><mask></mask><g transform="translate(591.022592663765 294.8036689758301) rotate(0 20 11.5)"><text x="20" y="0" font-family="Helvetica, Segoe UI Emoji" font-size="20px" fill="#000000" text-anchor="middle" style="white-space: pre;" direction="ltr" dominant-baseline="text-before-edge">线程</text></g><g transform="translate(587.4397984743118 59.9264030456543) rotate(0 20 11.5)"><text x="20" y="0" font-family="Helvetica, Segoe UI Emoji" font-size="20px" fill="#000000" text-anchor="middle" style="white-space: pre;" direction="ltr" dominant-baseline="text-before-edge">线程</text></g><g transform="translate(29.67657470703125 182.13803100585938) rotate(0 28.90625 11.5)"><text x="28.90625" y="0" font-family="Helvetica, Segoe UI Emoji" font-size="20px" fill="#000000" text-anchor="middle" style="white-space: pre;" direction="ltr" dominant-baseline="text-before-edge">client2</text></g><g stroke-linecap="round" transform="translate(547.6797568798065 10) rotate(0 67.14111328125 178.7484588623047)"><path d="M32 0 M32 0 C60.45 -0.8, 88.93 -1.15, 102.28 0 M32 0 C59.64 -0.48, 86.07 0.56, 102.28 0 M102.28 0 C124.01 0.52, 132.42 10.29, 134.28 32 M102.28 0 C123.86 0.1, 133.82 10.85, 134.28 32 M134.28 32 C134.05 98.79, 132.81 166.75, 134.28 325.5 M134.28 32 C134.74 136.41, 134.01 241.89, 134.28 325.5 M134.28 325.5 C133.58 348.82, 125.05 356.39, 102.28 357.5 M134.28 325.5 C135.11 347.15, 125.33 358.35, 102.28 357.5 M102.28 357.5 C75.63 357.54, 47.83 357.05, 32 357.5 M102.28 357.5 C81.67 357.47, 61.22 358.51, 32 357.5 M32 357.5 C11.08 359.41, -0.29 347.6, 0 325.5 M32 357.5 C10.1 358.2, -2.05 347.64, 0 325.5 M0 325.5 C-0.82 211.73, -3.03 97.76, 0 32 M0 325.5 C2.5 239.87, 2.21 153.66, 0 32 M0 32 C-0.62 11.48, 9.04 0.01, 32 0 M0 32 C-0.77 10.08, 9.97 1.72, 32 0" stroke="#000000" stroke-width="1" fill="none"></path></g></svg>