<svg xmlns="http://www.w3.org/2000/svg" viewBox="0 0 7046.19 11226.21" width="7046.19" height="11226.21" style="background-color: transparent;"><defs><style>@import url('https://fonts.googleapis.com/css2?family=Caveat+Brush&amp;family=Source+Code+Pro&amp;family=Source+Sans+Pro&amp;family=Crimson+Pro&amp;display=block');</style></defs><text font-size="28px" font-family="Caveat Brush" font-weight="normal" line-height="28px" letter-spacing="-0.03em" text-align="center" dominant-baseline="mathematical" alignment-baseline="mathematical" text-anchor="middle" fill="#1d1d1d" transform="translate(2326.38, 1997.08) rotate(0.00, 208.50, 19.00)"><tspan y="14px" x="208.5">总结：多用组合少用继承（原则）
</tspan></text><g><image width="1050" height="971" xmlns:xlink="http://www.w3.org/1999/xlink" xlink:href="https://s3.amazonaws.com/tldraw-multiplayer-storage-prod/c9a4aa6f-b3d7-4d51-382d-a5a3828a73d4image.mp4" transform="translate(579.05, 507.15) rotate(0.00, 525.00, 485.50)"/><image width="1385" height="832" xmlns:xlink="http://www.w3.org/1999/xlink" xlink:href="https://s3.amazonaws.com/tldraw-multiplayer-storage-prod/532f9060-814d-4507-1507-db1a2ccebd99image.mp4" transform="translate(1760.31, 501.87) rotate(0.00, 692.50, 416.00)"/><g text-align="center" text-anchor="middle" transform="translate(1629.05, 1013.91) rotate(0.00, 57.63, 0.77)"><g id="6f4f3cc5-3dd5-425d-1ff4-4507a9f9b9ae_svg" class="tl-centered-g"><defs><mask id="6f4f3cc5-3dd5-425d-1ff4-4507a9f9b9ae_clip"><rect x="-100" y="-100" width="315.26" height="201.54" fill="white"/><rect x="14.57" y="-12.423587133258339" width="86.10" height="26.38" rx="2.77" ry="2.77" fill="black" opacity="1"/></mask></defs><g pointer-events="none" opacity="1" mask="url(#6f4f3cc5-3dd5-425d-1ff4-4507a9f9b9ae_clip)"><path d="M-0.01,0.52 Q28.30,0.20 42.46,0.03 T70.78,-0.31 99.09,-0.66 113.39,-0.81 113.65,-0.73 113.87,-0.57 114.03,-0.34 114.10,-0.08 114.09,0.20 113.99,0.46 113.82,0.67 113.59,0.81 113.32,0.87 113.04,0.85 112.79,0.74 112.59,0.55 112.46,0.31 112.41,0.04 112.45,-0.23 112.58,-0.48 112.77,-0.67 113.02,-0.79 113.30,-0.82 113.56,-0.77 113.80,-0.63 113.98,-0.42 114.09,-0.17 114.11,0.11 114.04,0.37 113.88,0.60 113.67,0.77 113.41,0.86 113.27,0.89 99.11,1.09 70.80,1.50 42.49,1.91 14.17,2.34 -0.11,2.55 -0.35,2.49 -0.57,2.38 -0.75,2.22 -0.89,2.02 -0.98,1.80 -1.01,1.55 -0.99,1.31 -0.90,1.08 -0.77,0.88 -0.59,0.71 -0.37,0.60 -0.14,0.53 Z" fill="#1d1d1d" stroke="#1d1d1d" stroke-width="2.11" stroke-dasharray="none" stroke-dashoffset="none" stroke-linecap="round" stroke-linejoin="round" pointer-events="stroke"/><g><path d="M 101.29,-7.814165757018063 L 115.26,0 101.51,8.184406282937738" fill="none" stroke="#1d1d1d" stroke-width="4.23" stroke-linecap="round" stroke-linejoin="round" pointer-events="none"/></g></g></g><text font-size="28px" font-family="Caveat Brush" font-weight="normal" line-height="28px" letter-spacing="-0.03em" text-align="left" dominant-baseline="mathematical" alignment-baseline="mathematical" text-anchor="start" transform="translate(14.577241986209636, -12.423587133258339)" fill="#1d1d1d" transform-origin="center center"><tspan y="14px" x="4">封装变化 
</tspan></text></g><text font-size="35.814032451191px" font-family="Caveat Brush" font-weight="normal" line-height="35.814032451191px" letter-spacing="-0.03em" text-align="center" dominant-baseline="mathematical" alignment-baseline="mathematical" text-anchor="middle" fill="#1d1d1d" transform="translate(1743.13, 1366.79) rotate(0.00, 561.00, 23.00)"><tspan y="17.9070162255955px" x="561">将行为分离后，行为如何组织？分离原来的行为又该以怎样的方式存在？
</tspan></text><text font-size="30.45337458289129px" font-family="Caveat Brush" font-weight="normal" line-height="30.45337458289129px" letter-spacing="-0.03em" text-align="center" dominant-baseline="mathematical" alignment-baseline="mathematical" text-anchor="middle" fill="#1d1d1d" transform="translate(1653.38, 1441.21) rotate(0.00, 891.00, 50.50)"><tspan y="15.226687291445645px" x="891">答：行为分离为面向接口编程（原则），以接口为集结点组织（变化被封装为一个公共超类（原则））。分离后原来的行为由外部传入，
</tspan><tspan y="45.680061874336936px" x="891">
原来的行为以委托的方式存在（被供养）。
 
</tspan></text><text font-size="28px" font-family="Caveat Brush" font-weight="normal" line-height="28px" letter-spacing="-0.03em" text-align="center" dominant-baseline="mathematical" alignment-baseline="mathematical" text-anchor="middle" fill="#1d1d1d" transform="translate(578.55, 430.94) rotate(0.00, 113.50, 19.00)"><tspan y="14px" x="113.5">动静分离编程原则
</tspan></text></g><g><text font-size="35.12798634991742px" font-family="Caveat Brush" font-weight="normal" line-height="35.12798634991742px" letter-spacing="-0.03em" text-align="left" dominant-baseline="mathematical" alignment-baseline="mathematical" text-anchor="start" fill="#1d1d1d" transform="translate(2178.13, 3075.99) rotate(0.00, 431.00, 57.50)"><tspan y="17.56399317495871px" x="4">策略模式定义了算法族，分别封装起来，让它们之间
</tspan><tspan y="52.69197952487613px" x="4">
可以互相替换，此模式让算法的变化独立于使用算法的客
户。
</tspan></text><image width="950" height="381" xmlns:xlink="http://www.w3.org/1999/xlink" xlink:href="https://s3.amazonaws.com/tldraw-multiplayer-storage-prod/a0837ca1-c6e5-42cc-3fec-89f3206d0727image.mp4" transform="translate(2181.76, 2663.05) rotate(0.00, 475.00, 190.50)"/></g><text font-size="28px" font-family="Caveat Brush" font-weight="normal" line-height="28px" letter-spacing="-0.03em" text-align="left" dominant-baseline="mathematical" alignment-baseline="mathematical" text-anchor="start" fill="#1d1d1d" transform="translate(2327.61, 2033.03) rotate(0.00, 358.00, 75.00)"><tspan y="14px" x="4">如你所见，使用组合建立系统具有很大的弹性，不仅可将算
</tspan><tspan y="42px" x="4">
法族封装成类，更可以“在运行时动态地改变行为”，只要
组合的行为对象符合正确的接口标准即可。
组合用在“许多”设计模式中，在本书中，你也会看到它的
诸多优点和缺点。
</tspan></text><g id="92ca8258-1fba-4cc4-1f41-8b628b0d1c2e_svg" class="tl-centered-g" transform="translate(2616.41, 1542.21) rotate(0.00, 0.50, 223.44)"><defs><mask id="92ca8258-1fba-4cc4-1f41-8b628b0d1c2e_clip"><rect x="-100" y="-100" width="201" height="646.87" fill="white"/><rect x="0.34" y="223.43" width="0" height="0" rx="4" ry="4" fill="black" opacity="1"/></mask></defs><g pointer-events="none" opacity="1" mask=""><path d="M0.95,-0.00 Q1.05,111.22 1.11,166.82 T1.23,278.04 1.37,389.26 1.42,444.99 1.34,445.22 1.20,445.42 0.99,445.55 0.76,445.62 0.52,445.61 0.29,445.52 0.10,445.36 -0.02,445.15 -0.08,444.91 -0.05,444.67 0.05,444.45 0.22,444.27 0.44,444.16 0.68,444.12 0.92,444.15 1.13,444.27 1.30,444.45 1.40,444.67 1.43,444.91 1.38,445.15 1.25,445.36 1.07,445.52 0.84,445.61 0.60,445.62 0.36,445.56 0.16,445.42 0.01,445.22 -0.07,444.99 -0.09,444.87 -0.19,389.26 -0.39,278.04 -0.60,166.83 -0.83,55.61 -0.94,-0.11 -0.88,-0.33 -0.78,-0.54 -0.63,-0.71 -0.44,-0.84 -0.23,-0.92 -0.00,-0.94 0.22,-0.92 0.44,-0.84 0.63,-0.71 0.78,-0.54 0.88,-0.34 0.94,-0.12 Z" fill="#1d1d1d" stroke="#1d1d1d" stroke-width="2.11" stroke-dasharray="none" stroke-dashoffset="none" stroke-linecap="round" stroke-linejoin="round" pointer-events="stroke"/><g><path d="M 8.65,433.0014360333819 L 0.68,446.87 -7.3410759426232275,433.0257831307556" fill="none" stroke="#1d1d1d" stroke-width="4.23" stroke-linecap="round" stroke-linejoin="round" pointer-events="none"/></g></g></g><image width="490" height="479" xmlns:xlink="http://www.w3.org/1999/xlink" xlink:href="https://s3.amazonaws.com/tldraw-multiplayer-storage-prod/72c20de4-d18d-4faf-3049-103f5872b50eimage.mp4" transform="translate(3313.53, 1898.51) rotate(0.00, 245.00, 239.50)"/><g id="6bf8c54a-a702-4f57-06d8-75c356af4c74_svg" class="tl-centered-g" transform="translate(3051.61, 2136.26) rotate(0.00, 130.96, 0.50)"><defs><mask id="6bf8c54a-a702-4f57-06d8-75c356af4c74_clip"><rect x="-100" y="-100" width="461.92" height="201" fill="white"/><rect x="130.96" y="0.45" width="0" height="0" rx="4" ry="4" fill="black" opacity="1"/></mask></defs><g pointer-events="none" opacity="1" mask=""><path d="M261.92,1.93 Q196.94,1.65 164.45,1.52 T99.47,1.26 34.49,1.01 1.86,0.86 1.59,0.77 1.37,0.60 1.21,0.37 1.14,0.10 1.15,-0.18 1.26,-0.44 1.44,-0.66 1.68,-0.80 1.96,-0.86 2.23,-0.83 2.49,-0.71 2.69,-0.52 2.82,-0.27 2.87,0.01 2.82,0.29 2.69,0.53 2.48,0.73 2.23,0.84 1.95,0.87 1.68,0.81 1.44,0.67 1.26,0.45 1.15,0.19 1.14,-0.09 1.21,-0.36 1.37,-0.59 1.60,-0.76 1.86,-0.85 2.00,-0.87 34.49,-0.77 99.47,-0.58 164.45,-0.39 229.43,-0.22 262.05,-0.12 262.29,-0.06 262.51,0.06 262.69,0.22 262.83,0.43 262.92,0.66 262.95,0.90 262.92,1.15 262.83,1.38 262.69,1.58 262.50,1.75 262.28,1.86 262.04,1.92 Z" fill="#1d1d1d" stroke="#1d1d1d" stroke-width="2.11" stroke-dasharray="none" stroke-dashoffset="none" stroke-linecap="round" stroke-linejoin="round" pointer-events="stroke"/><g><path d="M 13.82,8.047565371536251 L 0,0 13.88,-7.952340171531643" fill="none" stroke="#1d1d1d" stroke-width="4.23" stroke-linecap="round" stroke-linejoin="round" pointer-events="none"/></g></g></g><g id="bcf23565-dad0-4079-1b14-468aa71f3583_svg" class="tl-centered-g" transform="translate(2555.54, 2183.03) rotate(0.00, 17.95, 232.01)"><defs><mask id="bcf23565-dad0-4079-1b14-468aa71f3583_clip"><rect x="-100" y="-100" width="235.91" height="664.02" fill="white"/><rect x="17.95" y="232.01" width="0" height="0" rx="4" ry="4" fill="black" opacity="1"/></mask></defs><g pointer-events="none" opacity="1" mask=""><path d="M36.79,0.07 Q27.77,115.57 23.28,173.32 T14.29,288.82 5.31,404.33 0.80,462.18 0.71,462.38 0.57,462.54 0.39,462.65 0.17,462.69 -0.04,462.66 -0.23,462.57 -0.38,462.41 -0.48,462.22 -0.51,462.01 -0.47,461.80 -0.36,461.61 -0.20,461.47 -0.01,461.38 0.21,461.36 0.41,461.42 0.60,461.53 0.73,461.70 0.80,461.90 0.81,462.11 0.75,462.32 0.62,462.49 0.45,462.62 0.25,462.68 0.03,462.68 -0.17,462.60 -0.34,462.47 -0.45,462.29 -0.51,462.08 -0.52,461.97 3.94,404.22 12.84,288.71 21.73,173.20 30.60,57.69 35.05,-0.17 35.11,-0.37 35.23,-0.55 35.38,-0.70 35.56,-0.81 35.77,-0.87 35.98,-0.88 36.19,-0.83 36.38,-0.74 36.54,-0.61 36.67,-0.44 36.75,-0.25 36.79,-0.04 Z" fill="#1d1d1d" stroke="#1d1d1d" stroke-width="2.11" stroke-dasharray="none" stroke-dashoffset="none" stroke-linecap="round" stroke-linejoin="round" pointer-events="stroke"/><g><path d="M 9.04,450.82216698052974 L 0,464.02 -6.907015537974355,449.5876358014987" fill="none" stroke="#1d1d1d" stroke-width="4.23" stroke-linecap="round" stroke-linejoin="round" pointer-events="none"/></g></g></g><image width="873" height="216" xmlns:xlink="http://www.w3.org/1999/xlink" xlink:href="https://s3.amazonaws.com/tldraw-multiplayer-storage-prod/d87d8494-68f6-434f-0d70-f7109fe3991cimage.mp4" transform="translate(1305.40, 16.00) rotate(0.00, 436.50, 108.00)"/><g text-align="center" text-anchor="middle" transform="translate(1383.09, 248.00) rotate(0.00, 74.47, 129.57)"><g id="4cb9a826-c34a-45a8-10cc-635b9da92b42_svg" class="tl-centered-g"><defs><mask id="4cb9a826-c34a-45a8-10cc-635b9da92b42_clip"><rect x="-100" y="-100" width="348.94" height="459.15" fill="white"/><rect x="42.47" y="110.57" width="64" height="38" rx="4" ry="4" fill="black" opacity="1"/></mask></defs><g pointer-events="none" opacity="1" mask="url(#4cb9a826-c34a-45a8-10cc-635b9da92b42_clip)"><path d="M-0.90,258.63 Q36.13,194.30 54.64,162.14 T91.66,97.80 128.67,33.46 147.26,1.18 147.48,0.99 147.74,0.88 148.02,0.86 148.30,0.93 148.54,1.08 148.71,1.31 148.81,1.57 148.81,1.86 148.73,2.13 148.56,2.36 148.33,2.52 148.06,2.61 147.77,2.60 147.51,2.50 147.28,2.32 147.13,2.08 147.07,1.80 147.09,1.52 147.21,1.26 147.40,1.04 147.65,0.91 147.93,0.86 148.21,0.90 148.46,1.02 148.66,1.23 148.79,1.48 148.82,1.76 148.77,2.04 148.72,2.18 130.23,34.36 93.27,98.73 56.32,163.10 19.37,227.48 0.83,259.77 0.66,259.95 0.45,260.08 0.21,260.16 -0.04,260.18 -0.29,260.15 -0.52,260.05 -0.72,259.90 -0.87,259.71 -0.98,259.48 -1.03,259.24 -1.02,258.99 -0.95,258.75 Z" fill="#1d1d1d" stroke="#1d1d1d" stroke-width="2.11" stroke-dasharray="none" stroke-dashoffset="none" stroke-linecap="round" stroke-linejoin="round" pointer-events="stroke"/><g><path d="M 135.09,8.027297399380066 L 148.94,0 148.97,15.999968916772067" fill="none" stroke="#1d1d1d" stroke-width="4.23" stroke-linecap="round" stroke-linejoin="round" pointer-events="none"/></g></g></g><text font-size="28px" font-family="Caveat Brush" font-weight="normal" line-height="28px" letter-spacing="-0.03em" text-align="left" dominant-baseline="mathematical" alignment-baseline="mathematical" text-anchor="start" transform="translate(42.47, 110.57)" fill="#1d1d1d" transform-origin="center center"><tspan y="14px" x="4">因为
</tspan></text></g><g text-align="center" text-anchor="middle" transform="translate(1996.82, 235.00) rotate(0.00, 54.30, 125.44)"><g id="6831551f-5fbf-4e90-39ad-a9981114888d_svg" class="tl-centered-g"><defs><mask id="6831551f-5fbf-4e90-39ad-a9981114888d_clip"><rect x="-100" y="-100" width="308.59" height="450.87" fill="white"/><rect x="22.29" y="106.43" width="64" height="38" rx="4" ry="4" fill="black" opacity="1"/></mask></defs><g pointer-events="none" opacity="1" mask="url(#6831551f-5fbf-4e90-39ad-a9981114888d_clip)"><path d="M0.80,-0.34 Q27.67,61.95 41.12,93.09 T68.02,155.37 94.93,217.64 108.41,248.88 108.43,249.08 108.38,249.29 108.27,249.46 108.11,249.59 107.92,249.66 107.71,249.67 107.51,249.61 107.35,249.49 107.23,249.32 107.16,249.12 107.17,248.92 107.24,248.72 107.37,248.56 107.54,248.45 107.74,248.40 107.95,248.42 108.14,248.50 108.29,248.63 108.39,248.81 108.43,249.02 108.41,249.22 108.31,249.41 108.17,249.55 107.98,249.64 107.78,249.67 107.58,249.63 107.40,249.53 107.26,249.38 107.20,249.29 93.71,218.17 66.73,155.93 39.73,93.69 12.72,31.46 -0.82,0.24 -0.86,0.04 -0.84,-0.17 -0.78,-0.36 -0.67,-0.54 -0.52,-0.68 -0.34,-0.79 -0.14,-0.85 0.06,-0.86 0.27,-0.82 0.46,-0.73 0.62,-0.60 0.74,-0.43 Z" fill="#1d1d1d" stroke="#1d1d1d" stroke-width="2.11" stroke-dasharray="none" stroke-dashoffset="none" stroke-linecap="round" stroke-linejoin="round" pointer-events="stroke"/><g><path d="M 110.42,234.97585766297584 L 108.59,250.87 95.74,241.3316464782231" fill="none" stroke="#1d1d1d" stroke-width="4.23" stroke-linecap="round" stroke-linejoin="round" pointer-events="none"/></g></g></g><text font-size="28px" font-family="Caveat Brush" font-weight="normal" line-height="28px" letter-spacing="-0.03em" text-align="left" dominant-baseline="mathematical" alignment-baseline="mathematical" text-anchor="start" transform="translate(22.299999999999997, 106.44)" fill="#1d1d1d" transform-origin="center center"><tspan y="14px" x="4">所以
</tspan></text></g><image width="1343" height="260" xmlns:xlink="http://www.w3.org/1999/xlink" xlink:href="https://s3.amazonaws.com/tldraw-multiplayer-storage-prod/4c0adc30-ea00-40fa-1ac4-5702319181a9image.mp4" transform="translate(384.64, 1965.68) rotate(0.00, 671.50, 130.00)"/><image width="886" height="517" xmlns:xlink="http://www.w3.org/1999/xlink" xlink:href="https://s3.amazonaws.com/tldraw-multiplayer-storage-prod/ab8bc49e-aeef-4bff-20df-2d37efe99d69image.mp4" transform="translate(2181.09, 3627.15) rotate(0.00, 443.00, 258.50)"/><g text-align="center" text-anchor="middle" transform="translate(2610.27, 3190.99) rotate(0.00, 4.18, 210.08)"><g id="e4491940-d038-48fb-1030-794d316ec05a_svg" class="tl-centered-g"><defs><mask id="e4491940-d038-48fb-1030-794d316ec05a_clip"><rect x="-100" y="-100" width="208.36" height="620.16" fill="white"/><rect x="-95.82" y="191.08" width="200" height="38" rx="4" ry="4" fill="black" opacity="1"/></mask></defs><g pointer-events="none" opacity="1" mask="url(#e4491940-d038-48fb-1030-794d316ec05a_clip)"><path d="M0.95,-0.02 Q2.96,104.52 3.98,156.79 T6.01,261.33 8.06,365.87 9.07,418.27 9.00,418.50 8.85,418.70 8.65,418.84 8.42,418.91 8.17,418.90 7.94,418.82 7.75,418.66 7.62,418.45 7.57,418.22 7.59,417.97 7.69,417.75 7.85,417.57 8.06,417.45 8.31,417.40 8.55,417.44 8.77,417.55 8.94,417.72 9.05,417.94 9.08,418.19 9.03,418.43 8.91,418.64 8.72,418.80 8.50,418.90 8.25,418.91 8.02,418.85 7.81,418.72 7.66,418.53 7.58,418.30 7.55,418.18 6.50,365.91 4.39,261.37 2.26,156.83 0.12,52.29 -0.94,-0.10 -0.89,-0.32 -0.79,-0.52 -0.64,-0.70 -0.46,-0.83 -0.24,-0.91 -0.02,-0.95 0.21,-0.92 0.42,-0.85 0.61,-0.72 0.77,-0.55 0.88,-0.35 0.94,-0.13 Z" fill="#1d1d1d" stroke="#1d1d1d" stroke-width="2.11" stroke-dasharray="none" stroke-dashoffset="none" stroke-linecap="round" stroke-linejoin="round" pointer-events="stroke"/><g><path d="M 16.08,406.1471896295258 L 8.36,420.16 0.08,406.4654815426324" fill="none" stroke="#1d1d1d" stroke-width="4.23" stroke-linecap="round" stroke-linejoin="round" pointer-events="none"/></g></g></g><text font-size="28px" font-family="Caveat Brush" font-weight="normal" line-height="28px" letter-spacing="-0.03em" text-align="left" dominant-baseline="mathematical" alignment-baseline="mathematical" text-anchor="start" transform="translate(-95.82, 191.08)" fill="#1d1d1d" transform-origin="center center"><tspan y="14px" x="4">观察者模式开始
</tspan></text></g><image width="826" height="590" xmlns:xlink="http://www.w3.org/1999/xlink" xlink:href="https://s3.amazonaws.com/tldraw-multiplayer-storage-prod/3dc33714-6e00-4a01-2d0e-7415e7ed903dimage.mp4" transform="translate(3218.33, 3594.05) rotate(0.00, 413.00, 295.00)"/><g text-align="center" text-anchor="middle" transform="translate(3067.09, 3880.55) rotate(0.00, 67.62, 0.59)"><g id="3ab37457-e8d9-4839-3840-6d2d454da114_svg" class="tl-centered-g"><defs><mask id="3ab37457-e8d9-4839-3840-6d2d454da114_clip"><rect x="-100" y="-100" width="335.24" height="201.19" fill="white"/><rect x="19.14" y="-14.8848763416403" width="96.95" height="30.95" rx="3.25" ry="3.25" fill="black" opacity="1"/></mask></defs><g pointer-events="none" opacity="1" mask="url(#3ab37457-e8d9-4839-3840-6d2d454da114_clip)"><path d="M-0.01,0.21 Q33.30,-0.02 49.96,-0.14 T83.27,-0.39 116.58,-0.65 133.36,-0.77 133.61,-0.69 133.81,-0.53 133.96,-0.32 134.03,-0.08 134.02,0.18 133.93,0.42 133.76,0.62 133.54,0.75 133.29,0.81 133.03,0.79 132.80,0.68 132.61,0.50 132.49,0.28 132.44,0.02 132.48,-0.23 132.60,-0.46 132.79,-0.64 133.02,-0.75 133.28,-0.78 133.53,-0.72 133.75,-0.59 133.92,-0.40 134.02,-0.16 134.03,0.10 133.96,0.35 133.82,0.56 133.62,0.72 133.38,0.80 133.25,0.82 116.59,0.98 83.28,1.31 49.97,1.64 16.66,1.99 -0.11,2.16 -0.34,2.10 -0.55,2.00 -0.72,1.84 -0.86,1.65 -0.94,1.43 -0.97,1.20 -0.95,0.97 -0.87,0.74 -0.74,0.55 -0.56,0.39 -0.35,0.28 -0.13,0.22 Z" fill="#1d1d1d" stroke="#1d1d1d" stroke-width="2.11" stroke-dasharray="none" stroke-dashoffset="none" stroke-linecap="round" stroke-linejoin="round" pointer-events="stroke"/><g><path d="M 121.31,-7.877770134484062 L 135.24,0 121.45,8.121610498080859" fill="none" stroke="#1d1d1d" stroke-width="4.23" stroke-linecap="round" stroke-linejoin="round" pointer-events="none"/></g></g></g><text font-size="28px" font-family="Caveat Brush" font-weight="normal" line-height="28px" letter-spacing="-0.03em" text-align="left" dominant-baseline="mathematical" alignment-baseline="mathematical" text-anchor="start" transform="translate(19.143545140652748, -14.8798763416403)" fill="#1d1d1d" transform-origin="center center"><tspan y="14px" x="4">代码案例
</tspan></text></g><image width="1045" height="363" xmlns:xlink="http://www.w3.org/1999/xlink" xlink:href="https://s3.amazonaws.com/tldraw-multiplayer-storage-prod/f03f55fb-fd53-43a1-20ee-c31fac5fdacfimage.mp4" transform="translate(2181.35, 4470.63) rotate(0.00, 522.50, 181.50)"/><g text-align="center" text-anchor="middle" transform="translate(2628.97, 4144.15) rotate(0.00, 2.93, 155.24)"><g id="21b1432c-8f8e-404d-2c18-820446438264_svg" class="tl-centered-g"><defs><mask id="21b1432c-8f8e-404d-2c18-820446438264_clip"><rect x="-100" y="-100" width="205.86" height="510.48" fill="white"/><rect x="-300.57" y="122.24" width="607" height="66" rx="4" ry="4" fill="black" opacity="1"/></mask></defs><g pointer-events="none" opacity="1" mask="url(#21b1432c-8f8e-404d-2c18-820446438264_clip)"><path d="M0.97,-0.02 Q2.36,77.10 3.06,115.66 T4.47,192.78 5.90,269.91 6.59,308.59 6.52,308.83 6.37,309.04 6.16,309.18 5.92,309.25 5.67,309.24 5.43,309.16 5.24,309.00 5.10,308.78 5.05,308.54 5.07,308.29 5.17,308.06 5.34,307.87 5.56,307.75 5.81,307.70 6.06,307.74 6.28,307.85 6.46,308.03 6.57,308.26 6.60,308.51 6.55,308.76 6.43,308.97 6.24,309.14 6.00,309.24 5.75,309.26 5.51,309.19 5.30,309.06 5.14,308.86 5.06,308.62 5.03,308.50 4.29,269.94 2.80,192.82 1.31,115.70 -0.21,38.58 -0.96,-0.10 -0.91,-0.32 -0.80,-0.53 -0.65,-0.71 -0.46,-0.84 -0.25,-0.93 -0.02,-0.96 0.21,-0.94 0.43,-0.86 0.62,-0.73 0.78,-0.56 0.89,-0.36 0.95,-0.13 Z" fill="#1d1d1d" stroke="#1d1d1d" stroke-width="2.11" stroke-dasharray="none" stroke-dashoffset="none" stroke-linecap="round" stroke-linejoin="round" pointer-events="stroke"/><g><path d="M 13.59,296.47509577402235 L 5.86,310.48 -2.4000547368401355,296.7770260255518" fill="none" stroke="#1d1d1d" stroke-width="4.23" stroke-linecap="round" stroke-linejoin="round" pointer-events="none"/></g></g></g><text font-size="28px" font-family="Caveat Brush" font-weight="normal" line-height="28px" letter-spacing="-0.03em" text-align="left" dominant-baseline="mathematical" alignment-baseline="mathematical" text-anchor="start" transform="translate(-300.57, 122.24)" fill="#1d1d1d" transform-origin="center center"><tspan y="14px" x="4">观察者模式带来了什么？
</tspan><tspan y="42px" x="4">
什么是松耦合？（对象之间的互相依赖降到最低）
</tspan></text></g><g transform="translate(1846.31, 4528.36) rotate(0.00, 100.00, 100.00)"><rect width="200" height="200" fill="#fddf8e" rx="3" ry="3"/><text font-size="24px" font-family="Caveat Brush" font-weight="normal" line-height="24px" letter-spacing="-0.03em" text-align="center" dominant-baseline="mathematical" alignment-baseline="mathematical" text-anchor="middle" fill="#0d0d0d" transform="translate(16, 16)"><tspan y="12px" x="84">Java内置的观察者模式实现： 
</tspan><tspan y="36px" x="84">
Observer/Observable。
</tspan></text></g><g id="52dcead1-e368-4352-39f7-c7b83efcbe51_svg" class="tl-centered-g" transform="translate(2046.31, 4622.75) rotate(0.00, 59.52, 1.52)"><defs><mask id="52dcead1-e368-4352-39f7-c7b83efcbe51_clip"><rect x="-100" y="-100" width="319.04" height="203.05" fill="white"/><rect x="59.52" y="1.52" width="0" height="0" rx="3.72" ry="3.72" fill="black" opacity="1"/></mask></defs><g pointer-events="none" opacity="1" mask=""><path d="M-0.03,2.02 Q29.24,1.33 43.87,0.98 T73.13,0.26 102.39,-0.46 117.16,-0.80 117.42,-0.72 117.65,-0.56 117.81,-0.33 117.89,-0.06 117.89,0.21 117.79,0.48 117.62,0.69 117.38,0.84 117.11,0.91 116.83,0.89 116.58,0.78 116.37,0.59 116.23,0.35 116.18,0.07 116.22,-0.20 116.34,-0.45 116.54,-0.65 116.79,-0.77 117.07,-0.81 117.34,-0.76 117.58,-0.62 117.77,-0.41 117.88,-0.16 117.90,0.12 117.83,0.39 117.68,0.63 117.46,0.80 117.20,0.90 117.06,0.92 102.43,1.31 73.17,2.09 43.91,2.88 14.66,3.68 -0.10,4.07 -0.34,4.02 -0.56,3.91 -0.75,3.75 -0.89,3.55 -0.99,3.32 -1.02,3.08 -1.00,2.83 -0.92,2.60 -0.78,2.39 -0.60,2.22 -0.39,2.10 -0.15,2.04 Z" fill="#1d1d1d" stroke="#1d1d1d" stroke-width="2.11" stroke-dasharray="none" stroke-dashoffset="none" stroke-linecap="round" stroke-linejoin="round" pointer-events="stroke"/><g><path d="M 104.98,-7.642468037031118 L 119.04,0 105.39,8.352282799857763" fill="none" stroke="#1d1d1d" stroke-width="4.23" stroke-linecap="round" stroke-linejoin="round" pointer-events="none"/></g></g></g><image width="720" height="1106" xmlns:xlink="http://www.w3.org/1999/xlink" xlink:href="https://s3.amazonaws.com/tldraw-multiplayer-storage-prod/afeb2b85-619d-4ac9-215b-b43efe5459a2image.mp4" transform="translate(1422.45, 4918.75) rotate(0.00, 360.00, 553.00)"/><g id="117f1f35-af62-4958-1825-292b8c2e10d5_svg" class="tl-centered-g" transform="translate(1965.35, 4742.71) rotate(0.00, 0.52, 80.02)"><defs><mask id="117f1f35-af62-4958-1825-292b8c2e10d5_clip"><rect x="-100" y="-100" width="201.04" height="360.03" fill="white"/><rect x="0.52" y="80.02" width="0" height="0" rx="4" ry="4" fill="black" opacity="1"/></mask></defs><g pointer-events="none" opacity="1" mask=""><path d="M0.85,-0.01 Q1.03,39.50 1.13,59.26 T1.33,98.77 1.55,138.28 1.64,158.14 1.58,158.33 1.46,158.49 1.29,158.60 1.10,158.66 0.90,158.65 0.71,158.57 0.56,158.45 0.45,158.27 0.41,158.08 0.43,157.88 0.51,157.69 0.65,157.55 0.82,157.45 1.02,157.42 1.22,157.45 1.40,157.54 1.54,157.69 1.62,157.87 1.65,158.07 1.61,158.27 1.50,158.44 1.35,158.57 1.16,158.65 0.96,158.66 0.77,158.61 0.60,158.49 0.48,158.33 0.41,158.14 0.40,158.04 0.25,138.29 -0.04,98.78 -0.36,59.27 -0.68,19.76 -0.84,-0.10 -0.80,-0.30 -0.70,-0.48 -0.57,-0.63 -0.40,-0.75 -0.21,-0.82 -0.01,-0.85 0.20,-0.83 0.39,-0.75 0.56,-0.64 0.70,-0.49 0.79,-0.31 0.84,-0.11 Z" fill="#1d1d1d" stroke="#1d1d1d" stroke-width="2.11" stroke-dasharray="none" stroke-dashoffset="none" stroke-linecap="round" stroke-linejoin="round" pointer-events="stroke"/><g><path d="M 8.94,146.13190019485873 L 1.04,160.04 -7.049873319607495,146.23587200607358" fill="none" stroke="#1d1d1d" stroke-width="4.23" stroke-linecap="round" stroke-linejoin="round" pointer-events="none"/></g></g></g><g text-align="center" text-anchor="middle" transform="translate(2654.60, 4833.63) rotate(0.00, 17.96, 739.27)"><g id="fc35fdaa-2d1f-459e-0711-dc8dd7c3c978_svg" class="tl-centered-g"><defs><mask id="fc35fdaa-2d1f-459e-0711-dc8dd7c3c978_clip"><rect x="-100" y="-100" width="235.93" height="1678.55" fill="white"/><rect x="-55.035" y="720.27" width="146" height="38" rx="4" ry="4" fill="black" opacity="1"/></mask></defs><g pointer-events="none" opacity="1" mask="url(#fc35fdaa-2d1f-459e-0711-dc8dd7c3c978_clip)"><path d="M0.98,-0.02 Q9.89,369.12 14.35,553.68 T23.28,922.82 32.22,1291.96 36.67,1476.66 36.59,1476.91 36.44,1477.12 36.23,1477.27 35.99,1477.34 35.73,1477.33 35.49,1477.24 35.29,1477.08 35.15,1476.86 35.09,1476.61 35.11,1476.36 35.21,1476.12 35.38,1475.93 35.61,1475.80 35.86,1475.75 36.12,1475.79 36.35,1475.90 36.53,1476.09 36.64,1476.32 36.68,1476.57 36.63,1476.83 36.50,1477.05 36.31,1477.22 36.07,1477.33 35.81,1477.35 35.56,1477.28 35.35,1477.14 35.19,1476.94 35.10,1476.70 35.07,1476.57 30.58,1292.00 21.57,922.86 12.56,553.73 3.53,184.59 -0.97,-0.09 -0.92,-0.32 -0.82,-0.53 -0.66,-0.71 -0.47,-0.85 -0.26,-0.94 -0.02,-0.98 0.21,-0.95 0.43,-0.88 0.63,-0.75 0.79,-0.57 0.90,-0.37 0.97,-0.14 Z" fill="#1d1d1d" stroke="#1d1d1d" stroke-width="2.11" stroke-dasharray="none" stroke-dashoffset="none" stroke-linecap="round" stroke-linejoin="round" pointer-events="stroke"/><g><path d="M 43.59,1464.5033337381958 L 35.93,1478.55 27.59,1464.892032350368" fill="none" stroke="#1d1d1d" stroke-width="4.23" stroke-linecap="round" stroke-linejoin="round" pointer-events="none"/></g></g></g><text font-size="28px" font-family="Caveat Brush" font-weight="normal" line-height="28px" letter-spacing="-0.03em" text-align="left" dominant-baseline="mathematical" alignment-baseline="mathematical" text-anchor="start" transform="translate(-55.03, 720.28)" fill="#1d1d1d" transform-origin="center center"><tspan y="14px" x="4">装饰者模式
</tspan></text></g><text font-size="36.29301010848549px" font-family="Caveat Brush" font-weight="normal" line-height="36.29301010848549px" letter-spacing="-0.03em" text-align="center" dominant-baseline="mathematical" alignment-baseline="mathematical" text-anchor="middle" fill="#1d1d1d" transform="translate(1978.00, 6331.99) rotate(0.00, 850.00, 41.50)"><tspan y="18.146505054242745px" x="850">装饰者模式：装饰就是封装，强调增强，
</tspan><tspan y="54.439515162728235px" x="850">
这种模式创建了一个装饰类，用来包装原有的类，并在保持类方法签名完整性的前提下，提供了额外的功能。
</tspan></text><image width="1073" height="668" xmlns:xlink="http://www.w3.org/1999/xlink" xlink:href="https://s3.amazonaws.com/tldraw-multiplayer-storage-prod/433f9de1-2b28-42fa-30bc-9e76f078c5f3image.mp4" transform="translate(4036.02, 6056.87) rotate(0.00, 536.50, 334.00)"/><g id="41b84284-8f09-41df-0d23-248ba193c81c_svg" class="tl-centered-g" transform="translate(3686.00, 6399.27) rotate(0.00, 175.01, 2.74)"><defs><mask id="41b84284-8f09-41df-0d23-248ba193c81c_clip"><rect x="-100" y="-100" width="550.02" height="205.48" fill="white"/><rect x="175.01" y="2.74" width="0" height="0" rx="4" ry="4" fill="black" opacity="1"/></mask></defs><g pointer-events="none" opacity="1" mask=""><path d="M350.04,1.03 Q263.03,2.34 219.53,3.00 T132.52,4.32 45.52,5.66 1.87,6.30 1.61,6.22 1.38,6.05 1.22,5.82 1.14,5.56 1.15,5.28 1.25,5.01 1.43,4.80 1.67,4.65 1.94,4.59 2.22,4.61 2.47,4.73 2.68,4.91 2.81,5.16 2.86,5.44 2.82,5.71 2.70,5.96 2.50,6.16 2.24,6.28 1.97,6.31 1.69,6.26 1.45,6.12 1.27,5.91 1.16,5.65 1.14,5.37 1.21,5.10 1.36,4.86 1.58,4.69 1.85,4.60 1.99,4.57 45.49,3.88 132.49,2.49 219.50,1.09 306.50,-0.32 350.13,-1.02 350.37,-0.96 350.59,-0.85 350.78,-0.69 350.92,-0.49 351.01,-0.26 351.04,-0.02 351.02,0.23 350.93,0.46 350.80,0.67 350.62,0.83 350.40,0.95 350.16,1.02 Z" fill="#1d1d1d" stroke="#1d1d1d" stroke-width="2.11" stroke-dasharray="none" stroke-dashoffset="none" stroke-linecap="round" stroke-linejoin="round" pointer-events="stroke"/><g><path d="M 13.97,13.262106951866702 L 0,5.48 13.72,-2.7359324636917908" fill="none" stroke="#1d1d1d" stroke-width="4.23" stroke-linecap="round" stroke-linejoin="round" pointer-events="none"/></g></g></g><image width="1143" height="507" xmlns:xlink="http://www.w3.org/1999/xlink" xlink:href="https://s3.amazonaws.com/tldraw-multiplayer-storage-prod/1ae2cbc1-f522-422d-1ab5-a2efe868baccimage.mp4" transform="translate(4052.15, 6922.95) rotate(0.00, 571.50, 253.50)"/><g id="f69c462e-a979-4396-17f7-6680bb4cf64c_svg" class="tl-centered-g" transform="translate(4628.34, 6740.87) rotate(0.00, 1.68, 91.04)"><defs><mask id="f69c462e-a979-4396-17f7-6680bb4cf64c_clip"><rect x="-100" y="-100" width="203.36" height="382.08" fill="white"/><rect x="1.68" y="91.04" width="0" height="0" rx="4" ry="4" fill="black" opacity="1"/></mask></defs><g pointer-events="none" opacity="1" mask=""><path d="M-1.00,182.06 Q-0.10,137.04 0.34,114.53 T1.21,69.51 2.07,24.49 2.52,1.85 2.61,1.60 2.77,1.40 2.99,1.25 3.25,1.19 3.51,1.21 3.76,1.31 3.95,1.48 4.09,1.71 4.14,1.97 4.10,2.23 3.99,2.47 3.80,2.66 3.57,2.78 3.31,2.81 3.05,2.77 2.82,2.64 2.64,2.44 2.53,2.20 2.51,1.94 2.57,1.68 2.71,1.46 2.92,1.29 3.16,1.20 3.43,1.19 3.68,1.27 3.89,1.42 4.05,1.63 4.13,1.88 4.15,2.02 3.75,24.53 2.95,69.55 2.16,114.57 1.38,159.59 0.98,182.22 0.92,182.45 0.80,182.66 0.64,182.83 0.44,182.96 0.22,183.04 -0.02,183.07 -0.25,183.04 -0.48,182.95 -0.67,182.81 -0.82,182.63 -0.93,182.41 -0.98,182.18 Z" fill="#1d1d1d" stroke="#1d1d1d" stroke-width="2.11" stroke-dasharray="none" stroke-dashoffset="none" stroke-linecap="round" stroke-linejoin="round" pointer-events="stroke"/><g><path d="M -4.894292892698479,13.706445521780893 L 3.36,0 11.10,14.00165009624467" fill="none" stroke="#1d1d1d" stroke-width="4.23" stroke-linecap="round" stroke-linejoin="round" pointer-events="none"/></g></g></g><g><image width="1502" height="1068" xmlns:xlink="http://www.w3.org/1999/xlink" xlink:href="https://s3.amazonaws.com/tldraw-multiplayer-storage-prod/4c1da5a3-54ce-406e-2fb9-594363cebb7cimage.mp4" transform="translate(5528.19, 6350.83) rotate(0.00, 751.00, 534.00)"/><text font-size="28px" font-family="Caveat Brush" font-weight="normal" line-height="28px" letter-spacing="-0.03em" text-align="center" dominant-baseline="mathematical" alignment-baseline="mathematical" text-anchor="middle" fill="#1d1d1d" transform="translate(5533.00, 6286.19) rotate(0.00, 152.00, 19.00)"><tspan y="14px" x="152">编写自己的Java I/0装饰者
</tspan></text></g><g id="18c3fc3b-be30-4e50-2f76-0814ec27076a_svg" class="tl-centered-g" transform="translate(5199.27, 7164.29) rotate(0.00, 164.46, 3.25)"><defs><mask id="18c3fc3b-be30-4e50-2f76-0814ec27076a_clip"><rect x="-100" y="-100" width="528.92" height="206.5" fill="white"/><rect x="164.46" y="3.25" width="0" height="0" rx="4" ry="4" fill="black" opacity="1"/></mask></defs><g pointer-events="none" opacity="1" mask=""><path d="M328.94,1.03 Q247.21,2.59 206.34,3.38 T124.61,4.95 42.88,6.54 1.88,7.32 1.61,7.23 1.38,7.07 1.22,6.84 1.14,6.57 1.15,6.29 1.25,6.03 1.43,5.81 1.66,5.66 1.94,5.60 2.21,5.62 2.47,5.74 2.68,5.92 2.81,6.17 2.86,6.44 2.82,6.72 2.70,6.97 2.50,7.17 2.25,7.29 1.97,7.32 1.70,7.27 1.45,7.13 1.27,6.92 1.16,6.66 1.14,6.38 1.21,6.11 1.36,5.88 1.58,5.70 1.84,5.61 1.98,5.58 42.85,4.77 124.58,3.12 206.31,1.47 288.04,-0.20 329.02,-1.02 329.26,-0.97 329.49,-0.85 329.67,-0.69 329.82,-0.49 329.91,-0.26 329.94,-0.02 329.92,0.23 329.84,0.46 329.70,0.66 329.52,0.83 329.30,0.95 329.06,1.01 Z" fill="#1d1d1d" stroke="#1d1d1d" stroke-width="2.11" stroke-dasharray="none" stroke-dashoffset="none" stroke-linecap="round" stroke-linejoin="round" pointer-events="stroke"/><g><path d="M 14.01,14.224666444962876 L 0,6.5 13.69,-1.7722102891447147" fill="none" stroke="#1d1d1d" stroke-width="4.23" stroke-linecap="round" stroke-linejoin="round" pointer-events="none"/></g></g></g><text font-size="65.40730313875562px" font-family="Caveat Brush" font-weight="normal" line-height="65.40730313875562px" letter-spacing="-0.03em" text-align="center" dominant-baseline="mathematical" alignment-baseline="mathematical" text-anchor="middle" fill="#1d1d1d" transform="translate(332.41, 6347.35) rotate(0.00, 512.50, 37.50)"><tspan y="32.70365156937781px" x="512.5">开闭原则：对扩展开放，对修改关闭
</tspan></text><g text-align="center" text-anchor="middle" transform="translate(1357.41, 6378.40) rotate(0.00, 306.30, 1.75)"><g id="97f157ab-2fd3-4b30-246d-e3b569ae8d56_svg" class="tl-centered-g"><defs><mask id="97f157ab-2fd3-4b30-246d-e3b569ae8d56_clip"><rect x="-100" y="-100" width="812.59" height="203.51" fill="white"/><rect x="260.79" y="-17.245" width="91" height="38" rx="4" ry="4" fill="black" opacity="1"/></mask></defs><g pointer-events="none" opacity="1" mask="url(#97f157ab-2fd3-4b30-246d-e3b569ae8d56_clip)"><path d="M-0.01,2.57 Q152.64,1.77 228.97,1.36 T381.61,0.53 534.26,-0.31 610.70,-0.71 610.93,-0.64 611.12,-0.50 611.25,-0.30 611.32,-0.07 611.31,0.16 611.22,0.39 611.07,0.57 610.87,0.69 610.63,0.74 610.40,0.72 610.18,0.62 610.01,0.46 609.90,0.25 609.86,0.02 609.89,-0.22 610.00,-0.43 610.18,-0.59 610.39,-0.69 610.63,-0.72 610.86,-0.67 611.06,-0.55 611.22,-0.37 611.30,-0.15 611.32,0.09 611.26,0.32 611.12,0.51 610.94,0.66 610.71,0.73 610.59,0.75 534.27,1.21 381.62,2.11 228.98,3.04 76.33,3.97 -0.11,4.43 -0.32,4.38 -0.52,4.28 -0.69,4.13 -0.82,3.95 -0.90,3.74 -0.93,3.52 -0.90,3.29 -0.82,3.08 -0.70,2.90 -0.53,2.75 -0.33,2.64 -0.12,2.59 Z" fill="#1d1d1d" stroke="#1d1d1d" stroke-width="2.11" stroke-dasharray="none" stroke-dashoffset="none" stroke-linecap="round" stroke-linejoin="round" pointer-events="stroke"/><g><path d="M 598.68,-7.920475958921124 L 612.59,0 598.77,8.079261405402312" fill="none" stroke="#1d1d1d" stroke-width="4.23" stroke-linecap="round" stroke-linejoin="round" pointer-events="none"/></g></g></g><text font-size="28px" font-family="Caveat Brush" font-weight="normal" line-height="28px" letter-spacing="-0.03em" text-align="left" dominant-baseline="mathematical" alignment-baseline="mathematical" text-anchor="start" transform="translate(260.8, -17.240000000000002)" fill="#1d1d1d" transform-origin="center center"><tspan y="14px" x="4">体现在
</tspan></text></g><text font-size="61.77656416291316px" font-family="Caveat Brush" font-weight="normal" line-height="61.77656416291316px" letter-spacing="-0.03em" text-align="center" dominant-baseline="mathematical" alignment-baseline="mathematical" text-anchor="middle" fill="#1d1d1d" transform="translate(325.43, 6536.70) rotate(0.00, 514.50, 36.00)"><tspan y="30.88828208145658px" x="514.5">装饰类与被装饰类都有一个共同的超类
</tspan></text><g id="5dfb2586-8881-4bce-1907-999bec3ba2f8_svg" class="tl-centered-g" transform="translate(1354.43, 6410.41) rotate(0.00, 307.79, 75.91)"><defs><mask id="5dfb2586-8881-4bce-1907-999bec3ba2f8_clip"><rect x="-100" y="-100" width="815.57" height="351.82" fill="white"/><rect x="307.78" y="75.91" width="0" height="0" rx="4" ry="4" fill="black" opacity="1"/></mask></defs><g pointer-events="none" opacity="1" mask=""><path d="M-0.22,150.94 Q153.21,113.18 229.92,94.29 T383.34,56.51 536.75,18.71 613.57,-0.21 613.80,-0.19 614.00,-0.10 614.16,0.05 614.27,0.24 614.32,0.46 614.28,0.68 614.19,0.88 614.03,1.04 613.83,1.14 613.61,1.17 613.39,1.12 613.20,1.01 613.05,0.85 612.96,0.64 612.94,0.42 613.00,0.21 613.12,0.02 613.29,-0.12 613.50,-0.20 613.72,-0.20 613.93,-0.14 614.12,-0.01 614.24,0.17 614.31,0.39 614.30,0.61 614.23,0.82 614.09,0.99 613.90,1.11 613.79,1.16 537.10,20.09 383.70,57.96 230.30,95.84 76.91,133.74 0.11,152.71 -0.11,152.71 -0.32,152.66 -0.51,152.56 -0.67,152.41 -0.79,152.24 -0.87,152.03 -0.90,151.82 -0.87,151.61 -0.79,151.40 -0.67,151.23 -0.51,151.08 -0.32,150.98 Z" fill="#1d1d1d" stroke="#1d1d1d" stroke-width="2.11" stroke-dasharray="none" stroke-dashoffset="none" stroke-linecap="round" stroke-linejoin="round" pointer-events="stroke"/><g><path d="M 600.20,-4.44922889065269 L 615.57,0 604.03,11.0852793074027" fill="none" stroke="#1d1d1d" stroke-width="4.23" stroke-linecap="round" stroke-linejoin="round" pointer-events="none"/></g></g></g><g text-align="center" text-anchor="middle" transform="translate(2664.41, 6472.96) rotate(0.00, 11.67, 680.41)"><g id="f34ad153-8ca0-4a6a-1c52-667678d26f56_svg" class="tl-centered-g"><defs><mask id="f34ad153-8ca0-4a6a-1c52-667678d26f56_clip"><rect x="-100" y="-100" width="223.34" height="1560.82" fill="white"/><rect x="-47.83" y="661.41" width="119" height="38" rx="4" ry="4" fill="black" opacity="1"/></mask></defs><g pointer-events="none" opacity="1" mask="url(#f34ad153-8ca0-4a6a-1c52-667678d26f56_clip)"><path d="M24.29,0.02 Q18.39,339.72 15.45,509.57 T9.58,849.28 3.72,1188.98 0.77,1358.95 0.69,1359.18 0.54,1359.37 0.34,1359.50 0.10,1359.57 -0.14,1359.55 -0.36,1359.45 -0.54,1359.29 -0.67,1359.09 -0.71,1358.85 -0.68,1358.61 -0.58,1358.39 -0.41,1358.22 -0.19,1358.11 0.05,1358.07 0.29,1358.12 0.50,1358.23 0.66,1358.41 0.76,1358.63 0.78,1358.87 0.72,1359.11 0.60,1359.31 0.41,1359.47 0.18,1359.55 -0.06,1359.56 -0.29,1359.49 -0.49,1359.35 -0.63,1359.16 -0.71,1358.93 -0.72,1358.81 2.18,1188.95 7.97,849.25 13.75,509.54 19.51,169.84 22.41,-0.13 22.47,-0.35 22.58,-0.55 22.73,-0.71 22.92,-0.84 23.13,-0.92 23.36,-0.94 23.58,-0.91 23.79,-0.82 23.98,-0.69 24.12,-0.52 24.22,-0.32 24.28,-0.10 Z" fill="#1d1d1d" stroke="#1d1d1d" stroke-width="2.11" stroke-dasharray="none" stroke-dashoffset="none" stroke-linecap="round" stroke-linejoin="round" pointer-events="stroke"/><g><path d="M 8.23,1347.1028223784997 L 0,1360.82 -7.761201428390835,1346.8284399587485" fill="none" stroke="#1d1d1d" stroke-width="4.23" stroke-linecap="round" stroke-linejoin="round" pointer-events="none"/></g></g></g><text font-size="28px" font-family="Caveat Brush" font-weight="normal" line-height="28px" letter-spacing="-0.03em" text-align="left" dominant-baseline="mathematical" alignment-baseline="mathematical" text-anchor="start" transform="translate(-47.83, 661.41)" fill="#1d1d1d" transform-origin="center center"><tspan y="14px" x="4">工厂模式
</tspan></text></g><text font-size="28px" font-family="Caveat Brush" font-weight="normal" line-height="28px" letter-spacing="-0.03em" text-align="center" dominant-baseline="mathematical" alignment-baseline="mathematical" text-anchor="middle" fill="#1d1d1d" transform="translate(2217.45, 7841.78) rotate(0.00, 446.50, 19.00)"><tspan y="14px" x="446.5">简单工厂模式：一个类，一个创建实例的方法，通过if判断要创建哪个实例
</tspan></text><text font-size="28px" font-family="Caveat Brush" font-weight="normal" line-height="28px" letter-spacing="-0.03em" text-align="center" dominant-baseline="mathematical" alignment-baseline="mathematical" text-anchor="middle" fill="#1d1d1d" transform="translate(2327.85, 8376.24) rotate(0.00, 263.00, 19.00)"><tspan y="14px" x="263">工厂方法模式：让子类实现创建实例的方法
</tspan></text><g id="7a4c2d6a-8620-4f43-1e75-831ce591443e_svg" class="tl-centered-g" transform="translate(1958.23, 8396.12) rotate(0.00, 180.81, 0.59)"><defs><mask id="7a4c2d6a-8620-4f43-1e75-831ce591443e_clip"><rect x="-100" y="-100" width="561.62" height="201.18" fill="white"/><rect x="180.81" y="0.59" width="0" height="0" rx="4" ry="4" fill="black" opacity="1"/></mask></defs><g pointer-events="none" opacity="1" mask=""><path d="M-0.00,0.21 Q89.90,-0.02 134.85,-0.14 T224.76,-0.39 314.66,-0.65 359.74,-0.77 359.98,-0.69 360.19,-0.53 360.33,-0.32 360.40,-0.08 360.39,0.17 360.29,0.41 360.13,0.60 359.91,0.73 359.66,0.79 359.41,0.76 359.18,0.66 359.00,0.48 358.88,0.26 358.84,0.01 358.88,-0.24 358.99,-0.47 359.18,-0.64 359.41,-0.75 359.66,-0.78 359.91,-0.72 360.13,-0.59 360.29,-0.40 360.38,-0.16 360.40,0.09 360.33,0.33 360.19,0.54 359.99,0.70 359.75,0.78 359.62,0.80 314.67,0.96 224.77,1.29 134.86,1.62 44.96,1.97 -0.11,2.14 -0.34,2.08 -0.55,1.98 -0.72,1.82 -0.85,1.63 -0.94,1.41 -0.97,1.18 -0.94,0.95 -0.86,0.73 -0.73,0.54 -0.55,0.39 -0.35,0.28 -0.12,0.22 Z" fill="#1d1d1d" stroke="#1d1d1d" stroke-width="2.11" stroke-dasharray="none" stroke-dashoffset="none" stroke-linecap="round" stroke-linejoin="round" pointer-events="stroke"/><g><path d="M 347.73,-7.95474289515084 L 361.62,0 347.78,8.045171923277339" fill="none" stroke="#1d1d1d" stroke-width="4.23" stroke-linecap="round" stroke-linejoin="round" pointer-events="none"/></g></g></g><g id="cc1db8f0-0474-4968-220e-fa43bb17145c_svg" class="tl-centered-g" transform="translate(2661.49, 7879.78) rotate(0.00, 1.19, 244.23)"><defs><mask id="cc1db8f0-0474-4968-220e-fa43bb17145c_clip"><rect x="-100" y="-100" width="202.37" height="688.46" fill="white"/><rect x="1.18" y="244.23" width="0" height="0" rx="4" ry="4" fill="black" opacity="1"/></mask></defs><g pointer-events="none" opacity="1" mask=""><path d="M3.40,0.00 Q2.75,121.62 2.43,182.43 T1.81,304.04 1.19,425.66 0.86,486.60 0.77,486.87 0.60,487.09 0.37,487.24 0.10,487.31 -0.18,487.30 -0.44,487.19 -0.65,487.01 -0.79,486.77 -0.85,486.50 -0.82,486.23 -0.70,485.97 -0.51,485.77 -0.26,485.64 0.01,485.60 0.29,485.65 0.53,485.78 0.72,485.98 0.84,486.23 0.87,486.51 0.81,486.78 0.66,487.02 0.45,487.20 0.19,487.30 -0.09,487.31 -0.36,487.24 -0.58,487.08 -0.75,486.86 -0.84,486.59 -0.86,486.46 -0.58,425.65 -0.02,304.03 0.54,182.42 1.08,60.80 1.36,-0.13 1.42,-0.37 1.53,-0.58 1.70,-0.77 1.90,-0.91 2.13,-0.99 2.38,-1.02 2.62,-0.99 2.85,-0.90 3.05,-0.76 3.21,-0.58 3.33,-0.36 3.38,-0.12 Z" fill="#1d1d1d" stroke="#1d1d1d" stroke-width="2.11" stroke-dasharray="none" stroke-dashoffset="none" stroke-linecap="round" stroke-linejoin="round" pointer-events="stroke"/><g><path d="M 8.06,474.642572051972 L 0,488.46 -7.932675566554585,474.5649412251769" fill="none" stroke="#1d1d1d" stroke-width="4.23" stroke-linecap="round" stroke-linejoin="round" pointer-events="none"/></g></g></g><image width="937" height="1174" xmlns:xlink="http://www.w3.org/1999/xlink" xlink:href="https://s3.amazonaws.com/tldraw-multiplayer-storage-prod/c2894b4b-5d51-4449-1d2e-b34f4f26f633image.mp4" transform="translate(1021.23, 7944.48) rotate(0.00, 468.50, 587.00)"/><image width="1594" height="906" xmlns:xlink="http://www.w3.org/1999/xlink" xlink:href="https://s3.amazonaws.com/tldraw-multiplayer-storage-prod/9583f6d2-0641-44e8-2cb4-375d880821a4image.mp4" transform="translate(3339.36, 8109.44) rotate(0.00, 797.00, 453.00)"/><g id="f38452c2-6c58-46ba-1c05-c34517779cbb_svg" class="tl-centered-g" transform="translate(2871.45, 8392.70) rotate(0.00, 233.96, 0.50)"><defs><mask id="f38452c2-6c58-46ba-1c05-c34517779cbb_clip"><rect x="-100" y="-100" width="667.91" height="201" fill="white"/><rect x="233.95" y="0.17" width="0" height="0" rx="4" ry="4" fill="black" opacity="1"/></mask></defs><g pointer-events="none" opacity="1" mask=""><path d="M467.91,1.19 Q351.43,1.03 293.19,0.96 T176.72,0.82 60.24,0.70 1.90,0.63 1.70,0.56 1.54,0.44 1.43,0.27 1.37,0.07 1.38,-0.13 1.46,-0.32 1.59,-0.48 1.77,-0.59 1.97,-0.63 2.17,-0.61 2.36,-0.52 2.50,-0.38 2.60,-0.20 2.63,0.00 2.60,0.20 2.50,0.38 2.35,0.52 2.17,0.61 1.97,0.63 1.77,0.59 1.59,0.48 1.46,0.33 1.38,0.14 1.37,-0.07 1.43,-0.26 1.54,-0.43 1.70,-0.56 1.90,-0.62 2.00,-0.64 60.24,-0.61 176.72,-0.57 293.19,-0.54 409.67,-0.53 468.01,-0.52 468.21,-0.47 468.40,-0.37 468.55,-0.24 468.67,-0.07 468.74,0.13 468.77,0.33 468.74,0.54 468.67,0.73 468.55,0.90 468.40,1.04 468.21,1.13 468.01,1.18 Z" fill="#1d1d1d" stroke="#1d1d1d" stroke-width="2.11" stroke-dasharray="none" stroke-dashoffset="none" stroke-linecap="round" stroke-linejoin="round" pointer-events="stroke"/><g><path d="M 13.85,8.009770430311102 L 0,0 13.86,-7.990225590513791" fill="none" stroke="#1d1d1d" stroke-width="4.23" stroke-linecap="round" stroke-linejoin="round" pointer-events="none"/></g></g></g><image width="998" height="1225" xmlns:xlink="http://www.w3.org/1999/xlink" xlink:href="https://s3.amazonaws.com/tldraw-multiplayer-storage-prod/fca4cff6-5013-4035-18e0-653f2e0daa73image.mp4" transform="translate(3372.68, 9236.60) rotate(0.00, 499.00, 612.50)"/><text font-size="28px" font-family="Caveat Brush" font-weight="normal" line-height="28px" letter-spacing="-0.03em" text-align="center" dominant-baseline="mathematical" alignment-baseline="mathematical" text-anchor="middle" fill="#1d1d1d" transform="translate(2555.48, 9537.75) rotate(0.00, 86.50, 19.00)"><tspan y="14px" x="86.5">抽象工厂模式
</tspan></text><g id="db717065-e20e-4cc8-255e-ca9c3840855a_svg" class="tl-centered-g" transform="translate(2642.43, 8414.24) rotate(0.00, 9.23, 557.75)"><defs><mask id="db717065-e20e-4cc8-255e-ca9c3840855a_clip"><rect x="-100" y="-100" width="218.46" height="1315.51" fill="white"/><rect x="9.23" y="557.75" width="0" height="0" rx="4" ry="4" fill="black" opacity="1"/></mask></defs><g pointer-events="none" opacity="1" mask=""><path d="M19.49,0.02 Q14.82,278.39 12.50,417.58 T7.85,695.96 3.22,974.34 0.88,1113.66 0.78,1113.92 0.61,1114.14 0.38,1114.29 0.11,1114.36 -0.16,1114.34 -0.42,1114.24 -0.63,1114.05 -0.77,1113.81 -0.82,1113.54 -0.79,1113.27 -0.67,1113.02 -0.47,1112.82 -0.23,1112.69 0.05,1112.65 0.32,1112.70 0.56,1112.84 0.75,1113.04 0.86,1113.30 0.89,1113.57 0.82,1113.84 0.68,1114.08 0.46,1114.25 0.20,1114.35 -0.07,1114.36 -0.34,1114.28 -0.57,1114.12 -0.73,1113.90 -0.81,1113.63 -0.83,1113.50 1.46,974.31 6.04,695.93 10.60,417.55 15.16,139.17 17.45,-0.14 17.51,-0.38 17.63,-0.59 17.80,-0.77 18.00,-0.91 18.23,-0.99 18.48,-1.02 18.72,-0.98 18.95,-0.89 19.15,-0.75 19.31,-0.56 19.42,-0.35 19.47,-0.11 Z" fill="#1d1d1d" stroke="#1d1d1d" stroke-width="2.11" stroke-dasharray="none" stroke-dashoffset="none" stroke-linecap="round" stroke-linejoin="round" pointer-events="stroke"/><g><path d="M 8.22,1101.7878602072794 L 0,1115.51 -7.769633678413902,1101.5231207017698" fill="none" stroke="#1d1d1d" stroke-width="4.23" stroke-linecap="round" stroke-linejoin="round" pointer-events="none"/></g></g></g><g id="c4116adf-653d-4262-37eb-f246dd05bd29_svg" class="tl-centered-g" transform="translate(2736.48, 9551.25) rotate(0.00, 318.10, 2.40)"><defs><mask id="c4116adf-653d-4262-37eb-f246dd05bd29_clip"><rect x="-100" y="-100" width="836.2" height="204.79" fill="white"/><rect x="318.1" y="2.39" width="0" height="0" rx="4" ry="4" fill="black" opacity="1"/></mask></defs><g pointer-events="none" opacity="1" mask=""><path d="M636.21,0.97 Q477.66,2.10 398.38,2.67 T239.83,3.82 81.28,4.98 1.88,5.55 1.64,5.47 1.44,5.32 1.29,5.11 1.22,4.87 1.24,4.61 1.33,4.38 1.49,4.18 1.71,4.05 1.95,4.00 2.20,4.02 2.43,4.13 2.62,4.30 2.74,4.52 2.78,4.77 2.74,5.02 2.63,5.24 2.44,5.42 2.21,5.53 1.96,5.56 1.72,5.50 1.50,5.37 1.33,5.18 1.24,4.95 1.22,4.70 1.29,4.45 1.43,4.24 1.63,4.09 1.87,4.01 1.99,3.98 81.27,3.37 239.82,2.15 398.37,0.91 556.92,-0.34 636.31,-0.96 636.54,-0.90 636.74,-0.80 636.92,-0.64 637.05,-0.45 637.13,-0.24 637.16,-0.01 637.14,0.22 637.06,0.44 636.93,0.63 636.75,0.79 636.55,0.90 636.32,0.96 Z" fill="#1d1d1d" stroke="#1d1d1d" stroke-width="2.11" stroke-dasharray="none" stroke-dashoffset="none" stroke-linecap="round" stroke-linejoin="round" pointer-events="stroke"/><g><path d="M 13.91,12.68545024076711 L 0,4.79 13.79,-3.3140962822791105" fill="none" stroke="#1d1d1d" stroke-width="4.23" stroke-linecap="round" stroke-linejoin="round" pointer-events="none"/></g></g></g><text font-size="28px" font-family="Caveat Brush" font-weight="normal" line-height="28px" letter-spacing="-0.03em" text-align="center" dominant-baseline="mathematical" alignment-baseline="mathematical" text-anchor="middle" fill="#1d1d1d" transform="translate(924.56, 9553.45) rotate(0.00, 643.00, 19.00)"><tspan y="14px" x="643">如果生产的产品没有系列这种，就是牛奶就是牛奶，没有分非洲牛奶还是中国牛奶，就不要用抽象工厂模式
</tspan></text><g id="93951174-3eec-460b-0154-fa7e13728927_svg" class="tl-centered-g" transform="translate(2210.56, 9558.13) rotate(0.00, 168.46, 2.46)"><defs><mask id="93951174-3eec-460b-0154-fa7e13728927_clip"><rect x="-100" y="-100" width="536.92" height="204.92" fill="white"/><rect x="168.46" y="2.46" width="0" height="0" rx="4" ry="4" fill="black" opacity="1"/></mask></defs><g pointer-events="none" opacity="1" mask=""><path d="M-0.01,4.06 Q83.72,2.92 125.58,2.34 T209.32,1.17 293.05,-0.01 335.01,-0.59 335.21,-0.53 335.37,-0.41 335.49,-0.24 335.54,-0.05 335.54,0.16 335.46,0.35 335.33,0.50 335.16,0.61 334.96,0.66 334.76,0.64 334.57,0.55 334.43,0.42 334.33,0.24 334.29,0.04 334.32,-0.16 334.41,-0.34 334.56,-0.49 334.74,-0.57 334.95,-0.60 335.14,-0.56 335.32,-0.46 335.45,-0.30 335.53,-0.11 335.55,0.09 335.49,0.29 335.38,0.46 335.22,0.58 335.03,0.65 334.93,0.67 293.06,1.29 209.34,2.56 125.61,3.83 41.88,5.13 -0.09,5.77 -0.29,5.72 -0.47,5.63 -0.63,5.50 -0.75,5.33 -0.83,5.14 -0.85,4.93 -0.83,4.73 -0.76,4.53 -0.65,4.36 -0.50,4.22 -0.31,4.13 -0.12,4.07 Z" fill="#1d1d1d" stroke="#1d1d1d" stroke-width="2.11" stroke-dasharray="none" stroke-dashoffset="none" stroke-linecap="round" stroke-linejoin="round" pointer-events="stroke"/><g><path d="M 322.94,-7.79682538661177 L 336.92,0 323.18,8.201468934958712" fill="none" stroke="#1d1d1d" stroke-width="4.23" stroke-linecap="round" stroke-linejoin="round" pointer-events="none"/></g></g></g><g id="fed9ff47-ee2d-4e90-266c-0abc098bef27_svg" class="tl-centered-g" transform="translate(2642.19, 9575.75) rotate(0.00, 7.01, 619.99)"><defs><mask id="fed9ff47-ee2d-4e90-266c-0abc098bef27_clip"><rect x="-100" y="-100" width="214.02" height="1439.98" fill="white"/><rect x="7.01" y="619.99" width="0" height="0" rx="4" ry="4" fill="black" opacity="1"/></mask></defs><g pointer-events="none" opacity="1" mask=""><path d="M0.87,-0.01 Q4.28,309.49 6.00,464.23 T9.45,773.73 12.91,1083.23 14.63,1238.08 14.56,1238.27 14.44,1238.44 14.27,1238.55 14.07,1238.61 13.87,1238.60 13.68,1238.53 13.52,1238.40 13.41,1238.22 13.36,1238.02 13.38,1237.82 13.47,1237.63 13.61,1237.48 13.79,1237.38 13.99,1237.34 14.19,1237.37 14.38,1237.47 14.52,1237.62 14.61,1237.80 14.63,1238.01 14.59,1238.21 14.49,1238.39 14.33,1238.52 14.14,1238.60 13.94,1238.61 13.74,1238.56 13.56,1238.45 13.44,1238.28 13.37,1238.09 13.35,1237.99 11.59,1083.24 8.05,773.75 4.50,464.25 0.92,154.76 -0.85,-0.09 -0.81,-0.30 -0.71,-0.48 -0.58,-0.64 -0.41,-0.76 -0.22,-0.83 -0.01,-0.86 0.20,-0.84 0.39,-0.77 0.56,-0.65 0.70,-0.50 0.80,-0.31 0.85,-0.11 Z" fill="#1d1d1d" stroke="#1d1d1d" stroke-width="2.11" stroke-dasharray="none" stroke-dashoffset="none" stroke-linecap="round" stroke-linejoin="round" pointer-events="stroke"/><g><path d="M 21.86,1226.0340318652243 L 14.02,1239.98 5.86,1226.2149264464622" fill="none" stroke="#1d1d1d" stroke-width="4.23" stroke-linecap="round" stroke-linejoin="round" pointer-events="none"/></g></g></g><text font-size="45.69457875010611px" font-family="Caveat Brush" font-weight="normal" line-height="45.69457875010611px" letter-spacing="-0.03em" text-align="center" dominant-baseline="mathematical" alignment-baseline="mathematical" text-anchor="middle" fill="#1d1d1d" transform="translate(2563.12, 10823.73) rotate(0.00, 93.50, 28.00)"><tspan y="22.847289375053055px" x="93.5">单例模式
</tspan></text><g><image width="1986" height="641" xmlns:xlink="http://www.w3.org/1999/xlink" xlink:href="https://s3.amazonaws.com/tldraw-multiplayer-storage-prod/000060b4-58bf-47b9-19e5-9a6b1a92fc20image.mp4" transform="translate(19.90, 10569.21) rotate(0.00, 993.00, 320.50)"/><text font-size="28px" font-family="Caveat Brush" font-weight="normal" line-height="28px" letter-spacing="-0.03em" text-align="center" dominant-baseline="mathematical" alignment-baseline="mathematical" text-anchor="middle" fill="#1d1d1d" transform="translate(16.00, 10514.39) rotate(0.00, 154.50, 19.00)"><tspan y="14px" x="154.5">使用双重检查，创建单例
</tspan></text></g><g id="e234f5e6-c316-481d-2d42-8c7858d24379_svg" class="tl-centered-g" transform="translate(2005.90, 10842.17) rotate(0.00, 274.61, 4.81)"><defs><mask id="e234f5e6-c316-481d-2d42-8c7858d24379_clip"><rect x="-100" y="-100" width="749.22" height="209.62" fill="white"/><rect x="274.61" y="4.81" width="0" height="0" rx="4" ry="4" fill="black" opacity="1"/></mask></defs><g pointer-events="none" opacity="1" mask=""><path d="M-0.02,8.58 Q136.79,6.24 205.19,5.07 T342.00,2.71 478.80,0.34 547.35,-0.83 547.62,-0.74 547.84,-0.58 548.01,-0.35 548.09,-0.07 548.08,0.21 547.98,0.47 547.80,0.69 547.56,0.84 547.28,0.91 547.00,0.88 546.74,0.77 546.54,0.57 546.40,0.33 546.35,0.05 546.39,-0.23 546.52,-0.48 546.72,-0.68 546.97,-0.80 547.25,-0.84 547.53,-0.78 547.77,-0.64 547.96,-0.43 548.07,-0.17 548.09,0.11 548.02,0.39 547.86,0.62 547.64,0.80 547.38,0.89 547.24,0.92 478.83,2.13 342.03,4.55 205.22,6.99 68.42,9.43 -0.11,10.65 -0.35,10.59 -0.57,10.48 -0.76,10.32 -0.90,10.11 -1.00,9.88 -1.03,9.64 -1.00,9.39 -0.92,9.16 -0.78,8.95 -0.60,8.78 -0.38,8.66 -0.14,8.60 Z" fill="#1d1d1d" stroke="#1d1d1d" stroke-width="2.11" stroke-dasharray="none" stroke-dashoffset="none" stroke-linecap="round" stroke-linejoin="round" pointer-events="stroke"/><g><path d="M 535.22,-7.756104952950246 L 549.22,0 535.50,8.241441199793533" fill="none" stroke="#1d1d1d" stroke-width="4.23" stroke-linecap="round" stroke-linejoin="round" pointer-events="none"/></g></g></g><text font-size="28px" font-family="Caveat Brush" font-weight="normal" line-height="28px" letter-spacing="-0.03em" text-align="center" dominant-baseline="mathematical" alignment-baseline="mathematical" text-anchor="middle" fill="#1d1d1d" transform="translate(2928.62, 10839.06) rotate(0.00, 426.00, 19.00)"><tspan y="14px" x="426">不可见且静态的单例资源成员变量+隐藏构造方法+全局访问点getInstance
</tspan></text><g id="a07cf59c-7676-4bf6-36e6-d1ca05e241da_svg" class="tl-centered-g" transform="translate(2758.12, 10852.65) rotate(0.00, 85.25, 0.78)"><defs><mask id="a07cf59c-7676-4bf6-36e6-d1ca05e241da_clip"><rect x="-100" y="-100" width="370.5" height="201.55" fill="white"/><rect x="85.25" y="0.77" width="0" height="0" rx="4" ry="4" fill="black" opacity="1"/></mask></defs><g pointer-events="none" opacity="1" mask=""><path d="M170.49,2.44 Q128.37,1.98 107.31,1.76 T65.18,1.33 23.06,0.91 1.88,0.68 1.68,0.61 1.51,0.48 1.39,0.30 1.33,0.08 1.34,-0.13 1.43,-0.33 1.57,-0.50 1.76,-0.61 1.97,-0.66 2.19,-0.63 2.38,-0.54 2.54,-0.38 2.64,-0.19 2.67,0.02 2.64,0.24 2.53,0.43 2.37,0.58 2.17,0.67 1.96,0.69 1.74,0.64 1.56,0.53 1.42,0.36 1.34,0.16 1.33,-0.06 1.39,-0.27 1.51,-0.45 1.69,-0.58 1.90,-0.65 2.01,-0.66 23.07,-0.49 65.19,-0.14 107.32,0.19 149.45,0.50 170.61,0.67 170.82,0.72 171.01,0.82 171.17,0.97 171.29,1.15 171.36,1.35 171.39,1.56 171.36,1.77 171.28,1.97 171.16,2.14 171.00,2.28 170.81,2.38 170.60,2.43 Z" fill="#1d1d1d" stroke="#1d1d1d" stroke-width="2.11" stroke-dasharray="none" stroke-dashoffset="none" stroke-linecap="round" stroke-linejoin="round" pointer-events="stroke"/><g><path d="M 13.78,8.125631568497138 L 0,0 13.92,-7.873707315456053" fill="none" stroke="#1d1d1d" stroke-width="4.23" stroke-linecap="round" stroke-linejoin="round" pointer-events="none"/></g></g></g></svg>