<?xml version="1.0" standalone="no"?><!DOCTYPE svg PUBLIC "-//W3C//DTD SVG 1.1//EN" "http://www.w3.org/Graphics/SVG/1.1/DTD/svg11.dtd"><svg t="1725103793102" class="icon" viewBox="0 0 1024 1024" version="1.1" xmlns="http://www.w3.org/2000/svg" p-id="6205" data-spm-anchor-id="a313x.search_index.0.i0.1a2a3a81Cw2q0D" xmlns:xlink="http://www.w3.org/1999/xlink" width="200" height="200"><path d="M228.266667 657.066667c12.8-36.266667 23.466667-74.666667 25.6-113.066667H172.8c6.4 42.666667 27.733333 83.2 55.466667 113.066667zM228.266667 366.933333c-29.866667 29.866667-49.066667 70.4-55.466667 113.066667h81.066667c-2.133333-40.533333-10.666667-78.933333-25.6-113.066667zM317.866667 544c-4.266667 55.466667-17.066667 106.666667-38.4 155.733333 29.866667 17.066667 66.133333 25.6 102.4 25.6s72.533333-10.666667 102.4-25.6c-21.333333-49.066667-34.133333-100.266667-38.4-155.733333h-128zM384 298.666667c-36.266667 0-72.533333 10.666667-102.4 25.6 21.333333 49.066667 34.133333 100.266667 38.4 155.733333h130.133333c4.266667-55.466667 17.066667-106.666667 38.4-155.733333-32-14.933333-68.266667-25.6-104.533333-25.6z" p-id="6206"></path><path d="M224 298.666667c25.6 0 46.933333-17.066667 51.2-42.666667 34.133333-14.933333 70.4-21.333333 108.8-21.333333 130.133333 0 238.933333 89.6 268.8 211.2 19.2-10.666667 38.4-21.333333 59.733333-27.733334C669.866667 275.2 539.733333 170.666667 384 170.666667c-46.933333 0-93.866667 10.666667-134.4 27.733333-8.533333-4.266667-17.066667-6.4-25.6-6.4C194.133333 192 170.666667 215.466667 170.666667 245.333333S194.133333 298.666667 224 298.666667z" p-id="6207"></path><path d="M514.133333 480h81.066667c-6.4-42.666667-25.6-83.2-55.466667-113.066667-14.933333 34.133333-23.466667 72.533333-25.6 113.066667zM514.133333 544c2.133333 34.133333 10.666667 66.133333 21.333334 98.133333 2.133333-36.266667 12.8-68.266667 27.733333-98.133333h-49.066667zM492.8 768c-34.133333 14.933333-70.4 21.333333-108.8 21.333333-153.6 0-277.333333-123.733333-277.333333-277.333333 0-17.066667-14.933333-32-32-32S42.666667 494.933333 42.666667 512c0 187.733333 153.6 341.333333 341.333333 341.333333 46.933333 0 93.866667-10.666667 134.4-27.733333 8.533333 4.266667 17.066667 6.4 25.6 6.4 14.933333 0 29.866667-6.4 40.533333-19.2-19.2-25.6-34.133333-55.466667-42.666666-87.466667-23.466667 2.133333-44.8 19.2-49.066667 42.666667z" p-id="6208"></path><path d="M789.333333 469.333333c-106.666667 0-192 85.333333-192 192s85.333333 192 192 192 192-85.333333 192-192-85.333333-192-192-192z m36.266667 320h-72.533333c-2.133333 0-4.266667-4.266667-4.266667-6.4l14.933333-29.866666c2.133333-4.266667 6.4-6.4 10.666667-6.4h27.733333c4.266667 0 8.533333 2.133333 10.666667 6.4l14.933333 29.866666c2.133333 2.133333 0 6.4-2.133333 6.4z m57.6-27.733333L810.666667 725.333333h-42.666667l-72.533333 36.266667c-6.4 2.133333-12.8-2.133333-12.8-8.533333l12.8-89.6c0-4.266667 2.133333-6.4 6.4-6.4l21.333333-4.266667c2.133333-10.666667 4.266667-21.333333 4.266667-32 0-59.733333 42.666667-106.666667 64-106.666667s64 46.933333 64 106.666667c0 10.666667 2.133333 23.466667 4.266666 32l21.333334 4.266667c4.266667 0 6.4 4.266667 6.4 6.4l12.8 89.6c-4.266667 8.533333-10.666667 10.666667-17.066667 8.533333z" p-id="6209" data-spm-anchor-id="a313x.search_index.0.i1.1a2a3a81Cw2q0D"></path></svg>